<?xml version="1.0" encoding="us-ascii" standalone="no"?><svg xmlns="http://www.w3.org/2000/svg" xmlns:xlink="http://www.w3.org/1999/xlink" contentStyleType="text/css" height="2793px" preserveAspectRatio="none" style="width:1707px;height:2793px;background:#FFFFFF;" version="1.1" viewBox="0 0 1707 2793" width="1707px" zoomAndPan="magnify"><defs/><g><!--class dtcc_model.geometry.Bounds--><g id="elem_dtcc_model.geometry.Bounds"><rect codeLine="5" fill="#F1F1F1" height="357.6406" id="dtcc_model.geometry.Bounds" rx="3.5" ry="3.5" style="stroke:#181818;stroke-width:0.5;" width="331" x="7" y="425.81"/><ellipse cx="142.25" cy="441.81" fill="#ADD1B2" rx="11" ry="11" style="stroke:#181818;stroke-width:1.0;"/><path d="M144.5938,437.4819 C143.6563,437.0444 143.0625,436.9037 142.1875,436.9037 C139.5625,436.9037 137.5625,438.9819 137.5625,441.7006 L137.5625,442.8256 C137.5625,445.4037 139.6719,447.2944 142.5625,447.2944 C143.7813,447.2944 144.9375,446.9975 145.6875,446.4506 C146.2656,446.0444 146.5938,445.5912 146.5938,445.2006 C146.5938,444.7475 146.2031,444.3569 145.7344,444.3569 C145.5156,444.3569 145.3125,444.435 145.125,444.6225 C144.6719,445.1069 144.6719,445.1069 144.4844,445.2006 C144.0625,445.4662 143.375,445.5912 142.6094,445.5912 C140.5625,445.5912 139.2656,444.4975 139.2656,442.7944 L139.2656,441.7006 C139.2656,439.9194 140.5156,438.6069 142.25,438.6069 C142.8281,438.6069 143.4375,438.7631 143.9063,439.0131 C144.3906,439.2944 144.5625,439.5131 144.6563,439.9194 C144.7188,440.3256 144.75,440.4506 144.8906,440.5756 C145.0313,440.7162 145.2656,440.8256 145.4844,440.8256 C145.75,440.8256 146.0156,440.685 146.1875,440.4662 C146.2969,440.31 146.3281,440.1225 146.3281,439.7006 L146.3281,438.2787 C146.3281,437.8412 146.3125,437.7162 146.2188,437.56 C146.0625,437.2944 145.7813,437.1537 145.4844,437.1537 C145.1875,437.1537 144.9844,437.2475 144.7656,437.56 L144.5938,437.4819 Z " fill="#000000"/><text fill="#000000" font-family="sans-serif" font-size="14" lengthAdjust="spacing" textLength="52" x="162.75" y="446.6567">Bounds</text><line style="stroke:#181818;stroke-width:0.5;" x1="8" x2="337" y1="457.81" y2="457.81"/><text fill="#000000" font-family="sans-serif" font-size="14" lengthAdjust="spacing" textLength="31" x="13" y="474.8051">area</text><text fill="#000000" font-family="sans-serif" font-size="14" lengthAdjust="spacing" textLength="48" x="13" y="491.102">bndstr</text><text fill="#000000" font-family="sans-serif" font-size="14" lengthAdjust="spacing" textLength="31" x="13" y="507.3989">east</text><text fill="#000000" font-family="sans-serif" font-size="14" lengthAdjust="spacing" textLength="47" x="13" y="523.6957">height</text><text fill="#000000" font-family="sans-serif" font-size="14" lengthAdjust="spacing" textLength="40" x="13" y="539.9926">north</text><text fill="#000000" font-family="sans-serif" font-size="14" lengthAdjust="spacing" textLength="40" x="13" y="556.2895">south</text><text fill="#000000" font-family="sans-serif" font-size="14" lengthAdjust="spacing" textLength="38" x="13" y="572.5864">tuple</text><text fill="#000000" font-family="sans-serif" font-size="14" lengthAdjust="spacing" textLength="34" x="13" y="588.8832">west</text><text fill="#000000" font-family="sans-serif" font-size="14" lengthAdjust="spacing" textLength="40" x="13" y="605.1801">width</text><text fill="#000000" font-family="sans-serif" font-size="14" lengthAdjust="spacing" textLength="85" x="13" y="621.477">xmax : float</text><text fill="#000000" font-family="sans-serif" font-size="14" lengthAdjust="spacing" textLength="82" x="13" y="637.7739">xmin : float</text><text fill="#000000" font-family="sans-serif" font-size="14" lengthAdjust="spacing" textLength="85" x="13" y="654.0707">ymax : float</text><text fill="#000000" font-family="sans-serif" font-size="14" lengthAdjust="spacing" textLength="82" x="13" y="670.3676">ymin : float</text><line style="stroke:#181818;stroke-width:0.5;" x1="8" x2="337" y1="677.6694" y2="677.6694"/><text fill="#000000" font-family="sans-serif" font-size="14" lengthAdjust="spacing" textLength="159" x="13" y="694.6645">buffer(distance: float)</text><text fill="#000000" font-family="sans-serif" font-size="14" lengthAdjust="spacing" textLength="121" x="13" y="710.9614">center() -&gt; tuple</text><text fill="#000000" font-family="sans-serif" font-size="14" lengthAdjust="spacing" textLength="319" x="13" y="727.2582">from_proto(pb: Union[proto.Bounds, bytes])</text><text fill="#000000" font-family="sans-serif" font-size="14" lengthAdjust="spacing" textLength="116" x="13" y="743.5551">intersect(other)</text><text fill="#000000" font-family="sans-serif" font-size="14" lengthAdjust="spacing" textLength="197" x="13" y="759.852">to_proto() -&gt; proto.Bounds</text><text fill="#000000" font-family="sans-serif" font-size="14" lengthAdjust="spacing" textLength="89" x="13" y="776.1489">union(other)</text></g><!--class dtcc_model.building.Building--><g id="elem_dtcc_model.building.Building"><rect codeLine="26" fill="#F1F1F1" height="259.8594" id="dtcc_model.building.Building" rx="3.5" ry="3.5" style="stroke:#181818;stroke-width:0.5;" width="336" x="1024.5" y="705.81"/><ellipse cx="1159.75" cy="721.81" fill="#ADD1B2" rx="11" ry="11" style="stroke:#181818;stroke-width:1.0;"/><path d="M1162.0938,717.4819 C1161.1563,717.0444 1160.5625,716.9038 1159.6875,716.9038 C1157.0625,716.9038 1155.0625,718.9819 1155.0625,721.7006 L1155.0625,722.8256 C1155.0625,725.4038 1157.1719,727.2944 1160.0625,727.2944 C1161.2813,727.2944 1162.4375,726.9975 1163.1875,726.4506 C1163.7656,726.0444 1164.0938,725.5913 1164.0938,725.2006 C1164.0938,724.7475 1163.7031,724.3569 1163.2344,724.3569 C1163.0156,724.3569 1162.8125,724.435 1162.625,724.6225 C1162.1719,725.1069 1162.1719,725.1069 1161.9844,725.2006 C1161.5625,725.4663 1160.875,725.5913 1160.1094,725.5913 C1158.0625,725.5913 1156.7656,724.4975 1156.7656,722.7944 L1156.7656,721.7006 C1156.7656,719.9194 1158.0156,718.6069 1159.75,718.6069 C1160.3281,718.6069 1160.9375,718.7631 1161.4063,719.0131 C1161.8906,719.2944 1162.0625,719.5131 1162.1563,719.9194 C1162.2188,720.3256 1162.25,720.4506 1162.3906,720.5756 C1162.5313,720.7163 1162.7656,720.8256 1162.9844,720.8256 C1163.25,720.8256 1163.5156,720.685 1163.6875,720.4663 C1163.7969,720.31 1163.8281,720.1225 1163.8281,719.7006 L1163.8281,718.2788 C1163.8281,717.8413 1163.8125,717.7163 1163.7188,717.56 C1163.5625,717.2944 1163.2813,717.1538 1162.9844,717.1538 C1162.6875,717.1538 1162.4844,717.2475 1162.2656,717.56 L1162.0938,717.4819 Z " fill="#000000"/><text fill="#000000" font-family="sans-serif" font-size="14" lengthAdjust="spacing" textLength="57" x="1180.25" y="726.6567">Building</text><line style="stroke:#181818;stroke-width:0.5;" x1="1025.5" x2="1359.5" y1="737.81" y2="737.81"/><text fill="#000000" font-family="sans-serif" font-size="14" lengthAdjust="spacing" textLength="31" x="1030.5" y="754.8051">area</text><text fill="#000000" font-family="sans-serif" font-size="14" lengthAdjust="spacing" textLength="54" x="1030.5" y="771.102">crs : str</text><text fill="#000000" font-family="sans-serif" font-size="14" lengthAdjust="spacing" textLength="69" x="1030.5" y="787.3989">error : int</text><text fill="#000000" font-family="sans-serif" font-size="14" lengthAdjust="spacing" textLength="74" x="1030.5" y="803.6957">floors : int</text><text fill="#000000" font-family="sans-serif" font-size="14" lengthAdjust="spacing" textLength="137" x="1030.5" y="819.9926">footprint : Polygon</text><text fill="#000000" font-family="sans-serif" font-size="14" lengthAdjust="spacing" textLength="138" x="1030.5" y="836.2895">ground_level : float</text><text fill="#000000" font-family="sans-serif" font-size="14" lengthAdjust="spacing" textLength="94" x="1030.5" y="852.5864">height : float</text><text fill="#000000" font-family="sans-serif" font-size="14" lengthAdjust="spacing" textLength="39" x="1030.5" y="868.8832">mesh</text><text fill="#000000" font-family="sans-serif" font-size="14" lengthAdjust="spacing" textLength="118" x="1030.5" y="885.1801">properties : dict</text><text fill="#000000" font-family="sans-serif" font-size="14" lengthAdjust="spacing" textLength="76" x="1030.5" y="901.477">roofpoints</text><text fill="#000000" font-family="sans-serif" font-size="14" lengthAdjust="spacing" textLength="62" x="1030.5" y="917.7739">uuid : str</text><line style="stroke:#181818;stroke-width:0.5;" x1="1025.5" x2="1359.5" y1="925.0756" y2="925.0756"/><text fill="#000000" font-family="sans-serif" font-size="14" lengthAdjust="spacing" textLength="324" x="1030.5" y="942.0707">from_proto(pb: Union[proto.Building, bytes])</text><text fill="#000000" font-family="sans-serif" font-size="14" lengthAdjust="spacing" textLength="202" x="1030.5" y="958.3676">to_proto() -&gt; proto.Building</text></g><!--class dtcc_model.city.City--><g id="elem_dtcc_model.city.City"><rect codeLine="41" fill="#F1F1F1" height="227.2656" id="dtcc_model.city.City" rx="3.5" ry="3.5" style="stroke:#181818;stroke-width:0.5;" width="308" x="1038.5" y="1808.31"/><ellipse cx="1173.75" cy="1824.31" fill="#ADD1B2" rx="11" ry="11" style="stroke:#181818;stroke-width:1.0;"/><path d="M1176.0938,1819.9819 C1175.1563,1819.5444 1174.5625,1819.4038 1173.6875,1819.4038 C1171.0625,1819.4038 1169.0625,1821.4819 1169.0625,1824.2006 L1169.0625,1825.3256 C1169.0625,1827.9038 1171.1719,1829.7944 1174.0625,1829.7944 C1175.2813,1829.7944 1176.4375,1829.4975 1177.1875,1828.9506 C1177.7656,1828.5444 1178.0938,1828.0913 1178.0938,1827.7006 C1178.0938,1827.2475 1177.7031,1826.8569 1177.2344,1826.8569 C1177.0156,1826.8569 1176.8125,1826.935 1176.625,1827.1225 C1176.1719,1827.6069 1176.1719,1827.6069 1175.9844,1827.7006 C1175.5625,1827.9663 1174.875,1828.0913 1174.1094,1828.0913 C1172.0625,1828.0913 1170.7656,1826.9975 1170.7656,1825.2944 L1170.7656,1824.2006 C1170.7656,1822.4194 1172.0156,1821.1069 1173.75,1821.1069 C1174.3281,1821.1069 1174.9375,1821.2631 1175.4063,1821.5131 C1175.8906,1821.7944 1176.0625,1822.0131 1176.1563,1822.4194 C1176.2188,1822.8256 1176.25,1822.9506 1176.3906,1823.0756 C1176.5313,1823.2163 1176.7656,1823.3256 1176.9844,1823.3256 C1177.25,1823.3256 1177.5156,1823.185 1177.6875,1822.9663 C1177.7969,1822.81 1177.8281,1822.6225 1177.8281,1822.2006 L1177.8281,1820.7788 C1177.8281,1820.3413 1177.8125,1820.2163 1177.7188,1820.06 C1177.5625,1819.7944 1177.2813,1819.6538 1176.9844,1819.6538 C1176.6875,1819.6538 1176.4844,1819.7475 1176.2656,1820.06 L1176.0938,1819.9819 Z " fill="#000000"/><text fill="#000000" font-family="sans-serif" font-size="14" lengthAdjust="spacing" textLength="29" x="1194.25" y="1829.1567">City</text><line style="stroke:#181818;stroke-width:0.5;" x1="1039.5" x2="1345.5" y1="1840.31" y2="1840.31"/><text fill="#000000" font-family="sans-serif" font-size="14" lengthAdjust="spacing" textLength="52" x="1044.5" y="1857.3051">bounds</text><text fill="#000000" font-family="sans-serif" font-size="14" lengthAdjust="spacing" textLength="170" x="1044.5" y="1873.602">buildings : List[Building]</text><text fill="#000000" font-family="sans-serif" font-size="14" lengthAdjust="spacing" textLength="48" x="1044.5" y="1889.8989">georef</text><text fill="#000000" font-family="sans-serif" font-size="14" lengthAdjust="spacing" textLength="161" x="1044.5" y="1906.1957">landuse : List[Landuse]</text><text fill="#000000" font-family="sans-serif" font-size="14" lengthAdjust="spacing" textLength="73" x="1044.5" y="1922.4926">name : str</text><text fill="#000000" font-family="sans-serif" font-size="14" lengthAdjust="spacing" textLength="41" x="1044.5" y="1938.7895">origin</text><text fill="#000000" font-family="sans-serif" font-size="14" lengthAdjust="spacing" textLength="92" x="1044.5" y="1955.0864">roadnetwork</text><text fill="#000000" font-family="sans-serif" font-size="14" lengthAdjust="spacing" textLength="49" x="1044.5" y="1971.3832">terrain</text><line style="stroke:#181818;stroke-width:0.5;" x1="1039.5" x2="1345.5" y1="1978.685" y2="1978.685"/><text fill="#000000" font-family="sans-serif" font-size="14" lengthAdjust="spacing" textLength="223" x="1044.5" y="1995.6801">add_building(building: Building)</text><text fill="#000000" font-family="sans-serif" font-size="14" lengthAdjust="spacing" textLength="296" x="1044.5" y="2011.977">from_proto(pb: Union[proto.City, bytes])</text><text fill="#000000" font-family="sans-serif" font-size="14" lengthAdjust="spacing" textLength="174" x="1044.5" y="2028.2739">to_proto() -&gt; proto.City</text></g><!--class dtcc_model.model.DTCCModel--><g id="elem_dtcc_model.model.DTCCModel"><rect codeLine="54" fill="#F1F1F1" height="145.7813" id="dtcc_model.model.DTCCModel" rx="3.5" ry="3.5" style="stroke:#181818;stroke-width:0.5;" width="220" x="1480" y="1390.81"/><ellipse cx="1544.25" cy="1406.81" fill="#ADD1B2" rx="11" ry="11" style="stroke:#181818;stroke-width:1.0;"/><path d="M1546.5938,1402.4819 C1545.6563,1402.0444 1545.0625,1401.9038 1544.1875,1401.9038 C1541.5625,1401.9038 1539.5625,1403.9819 1539.5625,1406.7006 L1539.5625,1407.8256 C1539.5625,1410.4038 1541.6719,1412.2944 1544.5625,1412.2944 C1545.7813,1412.2944 1546.9375,1411.9975 1547.6875,1411.4506 C1548.2656,1411.0444 1548.5938,1410.5913 1548.5938,1410.2006 C1548.5938,1409.7475 1548.2031,1409.3569 1547.7344,1409.3569 C1547.5156,1409.3569 1547.3125,1409.435 1547.125,1409.6225 C1546.6719,1410.1069 1546.6719,1410.1069 1546.4844,1410.2006 C1546.0625,1410.4663 1545.375,1410.5913 1544.6094,1410.5913 C1542.5625,1410.5913 1541.2656,1409.4975 1541.2656,1407.7944 L1541.2656,1406.7006 C1541.2656,1404.9194 1542.5156,1403.6069 1544.25,1403.6069 C1544.8281,1403.6069 1545.4375,1403.7631 1545.9063,1404.0131 C1546.3906,1404.2944 1546.5625,1404.5131 1546.6563,1404.9194 C1546.7188,1405.3256 1546.75,1405.4506 1546.8906,1405.5756 C1547.0313,1405.7163 1547.2656,1405.8256 1547.4844,1405.8256 C1547.75,1405.8256 1548.0156,1405.685 1548.1875,1405.4663 C1548.2969,1405.31 1548.3281,1405.1225 1548.3281,1404.7006 L1548.3281,1403.2788 C1548.3281,1402.8413 1548.3125,1402.7163 1548.2188,1402.56 C1548.0625,1402.2944 1547.7813,1402.1538 1547.4844,1402.1538 C1547.1875,1402.1538 1546.9844,1402.2475 1546.7656,1402.56 L1546.5938,1402.4819 Z " fill="#000000"/><text fill="#000000" font-family="sans-serif" font-size="14" lengthAdjust="spacing" textLength="83" x="1564.75" y="1411.6567">DTCCModel</text><line style="stroke:#181818;stroke-width:0.5;" x1="1481" x2="1699" y1="1422.81" y2="1422.81"/><line style="stroke:#181818;stroke-width:0.5;" x1="1481" x2="1699" y1="1430.81" y2="1430.81"/><text fill="#000000" font-family="sans-serif" font-size="14" lengthAdjust="spacing" textLength="208" x="1486" y="1447.8051">add_methods(module, name)</text><text fill="#000000" font-family="sans-serif" font-size="14" lengthAdjust="spacing" textLength="45" x="1486" y="1464.102">copy()</text><text fill="#000000" font-family="sans-serif" font-size="14" font-style="italic" lengthAdjust="spacing" textLength="107" x="1486" y="1480.3989">from_proto(pb)</text><text fill="#000000" font-family="sans-serif" font-size="14" lengthAdjust="spacing" textLength="175" x="1486" y="1496.6957">print_methods(verbose)</text><text fill="#000000" font-family="sans-serif" font-size="14" lengthAdjust="spacing" textLength="107" x="1486" y="1512.9926">to_json() -&gt; str</text><text fill="#000000" font-family="sans-serif" font-size="14" font-style="italic" lengthAdjust="spacing" textLength="69" x="1486" y="1529.2895">to_proto()</text></g><!--class dtcc_model.geometry.Georef--><g id="elem_dtcc_model.geometry.Georef"><rect codeLine="62" fill="#F1F1F1" height="145.7813" id="dtcc_model.geometry.Georef" rx="3.5" ry="3.5" style="stroke:#181818;stroke-width:0.5;" width="329" x="8" y="1704.81"/><ellipse cx="143.25" cy="1720.81" fill="#ADD1B2" rx="11" ry="11" style="stroke:#181818;stroke-width:1.0;"/><path d="M145.5938,1716.4819 C144.6563,1716.0444 144.0625,1715.9038 143.1875,1715.9038 C140.5625,1715.9038 138.5625,1717.9819 138.5625,1720.7006 L138.5625,1721.8256 C138.5625,1724.4038 140.6719,1726.2944 143.5625,1726.2944 C144.7813,1726.2944 145.9375,1725.9975 146.6875,1725.4506 C147.2656,1725.0444 147.5938,1724.5913 147.5938,1724.2006 C147.5938,1723.7475 147.2031,1723.3569 146.7344,1723.3569 C146.5156,1723.3569 146.3125,1723.435 146.125,1723.6225 C145.6719,1724.1069 145.6719,1724.1069 145.4844,1724.2006 C145.0625,1724.4663 144.375,1724.5913 143.6094,1724.5913 C141.5625,1724.5913 140.2656,1723.4975 140.2656,1721.7944 L140.2656,1720.7006 C140.2656,1718.9194 141.5156,1717.6069 143.25,1717.6069 C143.8281,1717.6069 144.4375,1717.7631 144.9063,1718.0131 C145.3906,1718.2944 145.5625,1718.5131 145.6563,1718.9194 C145.7188,1719.3256 145.75,1719.4506 145.8906,1719.5756 C146.0313,1719.7163 146.2656,1719.8256 146.4844,1719.8256 C146.75,1719.8256 147.0156,1719.685 147.1875,1719.4663 C147.2969,1719.31 147.3281,1719.1225 147.3281,1718.7006 L147.3281,1717.2788 C147.3281,1716.8413 147.3125,1716.7163 147.2188,1716.56 C147.0625,1716.2944 146.7813,1716.1538 146.4844,1716.1538 C146.1875,1716.1538 145.9844,1716.2475 145.7656,1716.56 L145.5938,1716.4819 Z " fill="#000000"/><text fill="#000000" font-family="sans-serif" font-size="14" lengthAdjust="spacing" textLength="50" x="163.75" y="1725.6567">Georef</text><line style="stroke:#181818;stroke-width:0.5;" x1="9" x2="336" y1="1736.81" y2="1736.81"/><text fill="#000000" font-family="sans-serif" font-size="14" lengthAdjust="spacing" textLength="54" x="14" y="1753.8051">crs : str</text><text fill="#000000" font-family="sans-serif" font-size="14" lengthAdjust="spacing" textLength="68" x="14" y="1770.102">epsg : int</text><text fill="#000000" font-family="sans-serif" font-size="14" lengthAdjust="spacing" textLength="64" x="14" y="1786.3989">x0 : float</text><text fill="#000000" font-family="sans-serif" font-size="14" lengthAdjust="spacing" textLength="64" x="14" y="1802.6957">y0 : float</text><line style="stroke:#181818;stroke-width:0.5;" x1="9" x2="336" y1="1809.9975" y2="1809.9975"/><text fill="#000000" font-family="sans-serif" font-size="14" lengthAdjust="spacing" textLength="317" x="14" y="1826.9926">from_proto(pb: Union[proto.Georef, bytes])</text><text fill="#000000" font-family="sans-serif" font-size="14" lengthAdjust="spacing" textLength="195" x="14" y="1843.2895">to_proto() -&gt; proto.Georef</text></g><!--class dtcc_model.grid.Grid--><g id="elem_dtcc_model.grid.Grid"><rect codeLine="70" fill="#F1F1F1" height="194.6719" id="dtcc_model.grid.Grid" rx="3.5" ry="3.5" style="stroke:#181818;stroke-width:0.5;" width="316" x="477" y="393.31"/><ellipse cx="615.75" cy="409.31" fill="#ADD1B2" rx="11" ry="11" style="stroke:#181818;stroke-width:1.0;"/><path d="M618.0938,404.9819 C617.1563,404.5444 616.5625,404.4037 615.6875,404.4037 C613.0625,404.4037 611.0625,406.4819 611.0625,409.2006 L611.0625,410.3256 C611.0625,412.9037 613.1719,414.7944 616.0625,414.7944 C617.2813,414.7944 618.4375,414.4975 619.1875,413.9506 C619.7656,413.5444 620.0938,413.0912 620.0938,412.7006 C620.0938,412.2475 619.7031,411.8569 619.2344,411.8569 C619.0156,411.8569 618.8125,411.935 618.625,412.1225 C618.1719,412.6069 618.1719,412.6069 617.9844,412.7006 C617.5625,412.9662 616.875,413.0912 616.1094,413.0912 C614.0625,413.0912 612.7656,411.9975 612.7656,410.2944 L612.7656,409.2006 C612.7656,407.4194 614.0156,406.1069 615.75,406.1069 C616.3281,406.1069 616.9375,406.2631 617.4063,406.5131 C617.8906,406.7944 618.0625,407.0131 618.1563,407.4194 C618.2188,407.8256 618.25,407.9506 618.3906,408.0756 C618.5313,408.2162 618.7656,408.3256 618.9844,408.3256 C619.25,408.3256 619.5156,408.185 619.6875,407.9662 C619.7969,407.81 619.8281,407.6225 619.8281,407.2006 L619.8281,405.7787 C619.8281,405.3412 619.8125,405.2162 619.7188,405.06 C619.5625,404.7944 619.2813,404.6537 618.9844,404.6537 C618.6875,404.6537 618.4844,404.7475 618.2656,405.06 L618.0938,404.9819 Z " fill="#000000"/><text fill="#000000" font-family="sans-serif" font-size="14" lengthAdjust="spacing" textLength="30" x="636.25" y="414.1567">Grid</text><line style="stroke:#181818;stroke-width:0.5;" x1="478" x2="792" y1="425.31" y2="425.31"/><text fill="#000000" font-family="sans-serif" font-size="14" lengthAdjust="spacing" textLength="52" x="483" y="442.3051">bounds</text><text fill="#000000" font-family="sans-serif" font-size="14" lengthAdjust="spacing" textLength="80" x="483" y="458.602">height : int</text><text fill="#000000" font-family="sans-serif" font-size="14" lengthAdjust="spacing" textLength="70" x="483" y="474.8989">num_cells</text><text fill="#000000" font-family="sans-serif" font-size="14" lengthAdjust="spacing" textLength="96" x="483" y="491.1957">num_vertices</text><text fill="#000000" font-family="sans-serif" font-size="14" lengthAdjust="spacing" textLength="73" x="483" y="507.4926">width : int</text><text fill="#000000" font-family="sans-serif" font-size="14" lengthAdjust="spacing" textLength="88" x="483" y="523.7895">xstep : float</text><text fill="#000000" font-family="sans-serif" font-size="14" lengthAdjust="spacing" textLength="88" x="483" y="540.0864">ystep : float</text><line style="stroke:#181818;stroke-width:0.5;" x1="478" x2="792" y1="547.3881" y2="547.3881"/><text fill="#000000" font-family="sans-serif" font-size="14" lengthAdjust="spacing" textLength="304" x="483" y="564.3832">from_proto(pb: Union[proto.Mesh, bytes])</text><text fill="#000000" font-family="sans-serif" font-size="14" lengthAdjust="spacing" textLength="182" x="483" y="580.6801">to_proto() -&gt; proto.Mesh</text></g><!--class dtcc_model.gridfields.GridField--><g id="elem_dtcc_model.gridfields.GridField"><rect codeLine="81" fill="#F1F1F1" height="113.1875" id="dtcc_model.gridfields.GridField" rx="3.5" ry="3.5" style="stroke:#181818;stroke-width:0.5;" width="343" x="1021" y="338.31"/><ellipse cx="1156.25" cy="354.31" fill="#ADD1B2" rx="11" ry="11" style="stroke:#181818;stroke-width:1.0;"/><path d="M1158.5938,349.9819 C1157.6563,349.5444 1157.0625,349.4037 1156.1875,349.4037 C1153.5625,349.4037 1151.5625,351.4819 1151.5625,354.2006 L1151.5625,355.3256 C1151.5625,357.9037 1153.6719,359.7944 1156.5625,359.7944 C1157.7813,359.7944 1158.9375,359.4975 1159.6875,358.9506 C1160.2656,358.5444 1160.5938,358.0912 1160.5938,357.7006 C1160.5938,357.2475 1160.2031,356.8569 1159.7344,356.8569 C1159.5156,356.8569 1159.3125,356.935 1159.125,357.1225 C1158.6719,357.6069 1158.6719,357.6069 1158.4844,357.7006 C1158.0625,357.9662 1157.375,358.0912 1156.6094,358.0912 C1154.5625,358.0912 1153.2656,356.9975 1153.2656,355.2944 L1153.2656,354.2006 C1153.2656,352.4194 1154.5156,351.1069 1156.25,351.1069 C1156.8281,351.1069 1157.4375,351.2631 1157.9063,351.5131 C1158.3906,351.7944 1158.5625,352.0131 1158.6563,352.4194 C1158.7188,352.8256 1158.75,352.9506 1158.8906,353.0756 C1159.0313,353.2162 1159.2656,353.3256 1159.4844,353.3256 C1159.75,353.3256 1160.0156,353.185 1160.1875,352.9662 C1160.2969,352.81 1160.3281,352.6225 1160.3281,352.2006 L1160.3281,350.7787 C1160.3281,350.3412 1160.3125,350.2162 1160.2188,350.06 C1160.0625,349.7944 1159.7813,349.6537 1159.4844,349.6537 C1159.1875,349.6537 1158.9844,349.7475 1158.7656,350.06 L1158.5938,349.9819 Z " fill="#000000"/><text fill="#000000" font-family="sans-serif" font-size="14" lengthAdjust="spacing" textLength="64" x="1176.75" y="359.1567">GridField</text><line style="stroke:#181818;stroke-width:0.5;" x1="1022" x2="1363" y1="370.31" y2="370.31"/><text fill="#000000" font-family="sans-serif" font-size="14" lengthAdjust="spacing" textLength="28" x="1027" y="387.3051">grid</text><text fill="#000000" font-family="sans-serif" font-size="14" lengthAdjust="spacing" textLength="111" x="1027" y="403.602">values : ndarray</text><line style="stroke:#181818;stroke-width:0.5;" x1="1022" x2="1363" y1="410.9037" y2="410.9037"/><text fill="#000000" font-family="sans-serif" font-size="14" lengthAdjust="spacing" textLength="331" x="1027" y="427.8989">from_proto(pb: Union[proto.GridField, bytes])</text><text fill="#000000" font-family="sans-serif" font-size="14" lengthAdjust="spacing" textLength="209" x="1027" y="444.1957">to_proto() -&gt; proto.GridField</text></g><!--class dtcc_model.gridfields.GridVectorField--><g id="elem_dtcc_model.gridfields.GridVectorField"><rect codeLine="87" fill="#F1F1F1" height="113.1875" id="dtcc_model.gridfields.GridVectorField" rx="3.5" ry="3.5" style="stroke:#181818;stroke-width:0.5;" width="392" x="996.5" y="486.31"/><ellipse cx="1131.75" cy="502.31" fill="#ADD1B2" rx="11" ry="11" style="stroke:#181818;stroke-width:1.0;"/><path d="M1134.0938,497.9819 C1133.1563,497.5444 1132.5625,497.4037 1131.6875,497.4037 C1129.0625,497.4037 1127.0625,499.4819 1127.0625,502.2006 L1127.0625,503.3256 C1127.0625,505.9037 1129.1719,507.7944 1132.0625,507.7944 C1133.2813,507.7944 1134.4375,507.4975 1135.1875,506.9506 C1135.7656,506.5444 1136.0938,506.0912 1136.0938,505.7006 C1136.0938,505.2475 1135.7031,504.8569 1135.2344,504.8569 C1135.0156,504.8569 1134.8125,504.935 1134.625,505.1225 C1134.1719,505.6069 1134.1719,505.6069 1133.9844,505.7006 C1133.5625,505.9662 1132.875,506.0912 1132.1094,506.0912 C1130.0625,506.0912 1128.7656,504.9975 1128.7656,503.2944 L1128.7656,502.2006 C1128.7656,500.4194 1130.0156,499.1069 1131.75,499.1069 C1132.3281,499.1069 1132.9375,499.2631 1133.4063,499.5131 C1133.8906,499.7944 1134.0625,500.0131 1134.1563,500.4194 C1134.2188,500.8256 1134.25,500.9506 1134.3906,501.0756 C1134.5313,501.2162 1134.7656,501.3256 1134.9844,501.3256 C1135.25,501.3256 1135.5156,501.185 1135.6875,500.9662 C1135.7969,500.81 1135.8281,500.6225 1135.8281,500.2006 L1135.8281,498.7787 C1135.8281,498.3412 1135.8125,498.2162 1135.7188,498.06 C1135.5625,497.7944 1135.2813,497.6537 1134.9844,497.6537 C1134.6875,497.6537 1134.4844,497.7475 1134.2656,498.06 L1134.0938,497.9819 Z " fill="#000000"/><text fill="#000000" font-family="sans-serif" font-size="14" lengthAdjust="spacing" textLength="113" x="1152.25" y="507.1567">GridVectorField</text><line style="stroke:#181818;stroke-width:0.5;" x1="997.5" x2="1387.5" y1="518.31" y2="518.31"/><text fill="#000000" font-family="sans-serif" font-size="14" lengthAdjust="spacing" textLength="28" x="1002.5" y="535.3051">grid</text><text fill="#000000" font-family="sans-serif" font-size="14" lengthAdjust="spacing" textLength="111" x="1002.5" y="551.602">values : ndarray</text><line style="stroke:#181818;stroke-width:0.5;" x1="997.5" x2="1387.5" y1="558.9038" y2="558.9038"/><text fill="#000000" font-family="sans-serif" font-size="14" lengthAdjust="spacing" textLength="380" x="1002.5" y="575.8989">from_proto(pb: Union[proto.GridVectorField, bytes])</text><text fill="#000000" font-family="sans-serif" font-size="14" lengthAdjust="spacing" textLength="209" x="1002.5" y="592.1957">to_proto() -&gt; proto.GridField</text></g><!--class dtcc_model.landuse.Landuse--><g id="elem_dtcc_model.landuse.Landuse"><rect codeLine="93" fill="#F1F1F1" height="145.7813" id="dtcc_model.landuse.Landuse" rx="3.5" ry="3.5" style="stroke:#181818;stroke-width:0.5;" width="338" x="1023.5" y="2148.81"/><ellipse cx="1159.25" cy="2164.81" fill="#ADD1B2" rx="11" ry="11" style="stroke:#181818;stroke-width:1.0;"/><path d="M1161.5938,2160.4819 C1160.6563,2160.0444 1160.0625,2159.9038 1159.1875,2159.9038 C1156.5625,2159.9038 1154.5625,2161.9819 1154.5625,2164.7006 L1154.5625,2165.8256 C1154.5625,2168.4038 1156.6719,2170.2944 1159.5625,2170.2944 C1160.7813,2170.2944 1161.9375,2169.9975 1162.6875,2169.4506 C1163.2656,2169.0444 1163.5938,2168.5913 1163.5938,2168.2006 C1163.5938,2167.7475 1163.2031,2167.3569 1162.7344,2167.3569 C1162.5156,2167.3569 1162.3125,2167.435 1162.125,2167.6225 C1161.6719,2168.1069 1161.6719,2168.1069 1161.4844,2168.2006 C1161.0625,2168.4663 1160.375,2168.5913 1159.6094,2168.5913 C1157.5625,2168.5913 1156.2656,2167.4975 1156.2656,2165.7944 L1156.2656,2164.7006 C1156.2656,2162.9194 1157.5156,2161.6069 1159.25,2161.6069 C1159.8281,2161.6069 1160.4375,2161.7631 1160.9063,2162.0131 C1161.3906,2162.2944 1161.5625,2162.5131 1161.6563,2162.9194 C1161.7188,2163.3256 1161.75,2163.4506 1161.8906,2163.5756 C1162.0313,2163.7163 1162.2656,2163.8256 1162.4844,2163.8256 C1162.75,2163.8256 1163.0156,2163.685 1163.1875,2163.4663 C1163.2969,2163.31 1163.3281,2163.1225 1163.3281,2162.7006 L1163.3281,2161.2788 C1163.3281,2160.8413 1163.3125,2160.7163 1163.2188,2160.56 C1163.0625,2160.2944 1162.7813,2160.1538 1162.4844,2160.1538 C1162.1875,2160.1538 1161.9844,2160.2475 1161.7656,2160.56 L1161.5938,2160.4819 Z " fill="#000000"/><text fill="#000000" font-family="sans-serif" font-size="14" lengthAdjust="spacing" textLength="58" x="1179.75" y="2169.6567">Landuse</text><line style="stroke:#181818;stroke-width:0.5;" x1="1024.5" x2="1360.5" y1="2180.81" y2="2180.81"/><text fill="#000000" font-family="sans-serif" font-size="14" lengthAdjust="spacing" textLength="31" x="1029.5" y="2197.8051">area</text><text fill="#000000" font-family="sans-serif" font-size="14" lengthAdjust="spacing" textLength="137" x="1029.5" y="2214.102">footprint : Polygon</text><text fill="#000000" font-family="sans-serif" font-size="14" lengthAdjust="spacing" textLength="54" x="1029.5" y="2230.3989">landuse</text><text fill="#000000" font-family="sans-serif" font-size="14" lengthAdjust="spacing" textLength="118" x="1029.5" y="2246.6957">properties : dict</text><line style="stroke:#181818;stroke-width:0.5;" x1="1024.5" x2="1360.5" y1="2253.9975" y2="2253.9975"/><text fill="#000000" font-family="sans-serif" font-size="14" lengthAdjust="spacing" textLength="326" x="1029.5" y="2270.9926">from_proto(pb: Union[proto.LandUse, bytes])</text><text fill="#000000" font-family="sans-serif" font-size="14" lengthAdjust="spacing" textLength="204" x="1029.5" y="2287.2895">to_proto() -&gt; proto.LandUse</text></g><!--class dtcc_model.landuse.LanduseClasses--><g id="elem_dtcc_model.landuse.LanduseClasses"><rect codeLine="101" fill="#F1F1F1" height="64.2969" id="dtcc_model.landuse.LanduseClasses" rx="3.5" ry="3.5" style="stroke:#181818;stroke-width:0.5;" width="142" x="564" y="2362.81"/><ellipse cx="579" cy="2378.81" fill="#ADD1B2" rx="11" ry="11" style="stroke:#181818;stroke-width:1.0;"/><path d="M581.3438,2374.4819 C580.4063,2374.0444 579.8125,2373.9038 578.9375,2373.9038 C576.3125,2373.9038 574.3125,2375.9819 574.3125,2378.7006 L574.3125,2379.8256 C574.3125,2382.4038 576.4219,2384.2944 579.3125,2384.2944 C580.5313,2384.2944 581.6875,2383.9975 582.4375,2383.4506 C583.0156,2383.0444 583.3438,2382.5913 583.3438,2382.2006 C583.3438,2381.7475 582.9531,2381.3569 582.4844,2381.3569 C582.2656,2381.3569 582.0625,2381.435 581.875,2381.6225 C581.4219,2382.1069 581.4219,2382.1069 581.2344,2382.2006 C580.8125,2382.4663 580.125,2382.5913 579.3594,2382.5913 C577.3125,2382.5913 576.0156,2381.4975 576.0156,2379.7944 L576.0156,2378.7006 C576.0156,2376.9194 577.2656,2375.6069 579,2375.6069 C579.5781,2375.6069 580.1875,2375.7631 580.6563,2376.0131 C581.1406,2376.2944 581.3125,2376.5131 581.4063,2376.9194 C581.4688,2377.3256 581.5,2377.4506 581.6406,2377.5756 C581.7813,2377.7163 582.0156,2377.8256 582.2344,2377.8256 C582.5,2377.8256 582.7656,2377.685 582.9375,2377.4663 C583.0469,2377.31 583.0781,2377.1225 583.0781,2376.7006 L583.0781,2375.2788 C583.0781,2374.8413 583.0625,2374.7163 582.9688,2374.56 C582.8125,2374.2944 582.5313,2374.1538 582.2344,2374.1538 C581.9375,2374.1538 581.7344,2374.2475 581.5156,2374.56 L581.3438,2374.4819 Z " fill="#000000"/><text fill="#000000" font-family="sans-serif" font-size="14" lengthAdjust="spacing" textLength="110" x="593" y="2383.6567">LanduseClasses</text><line style="stroke:#181818;stroke-width:0.5;" x1="565" x2="705" y1="2394.81" y2="2394.81"/><text fill="#000000" font-family="sans-serif" font-size="14" lengthAdjust="spacing" textLength="40" x="570" y="2411.8051">name</text><line style="stroke:#181818;stroke-width:0.5;" x1="565" x2="705" y1="2419.1069" y2="2419.1069"/></g><!--class dtcc_model.meshes.Mesh--><g id="elem_dtcc_model.meshes.Mesh"><rect codeLine="104" fill="#F1F1F1" height="227.2656" id="dtcc_model.meshes.Mesh" rx="3.5" ry="3.5" style="stroke:#181818;stroke-width:0.5;" width="316" x="477" y="1203.31"/><ellipse cx="612.25" cy="1219.31" fill="#ADD1B2" rx="11" ry="11" style="stroke:#181818;stroke-width:1.0;"/><path d="M614.5938,1214.9819 C613.6563,1214.5444 613.0625,1214.4038 612.1875,1214.4038 C609.5625,1214.4038 607.5625,1216.4819 607.5625,1219.2006 L607.5625,1220.3256 C607.5625,1222.9038 609.6719,1224.7944 612.5625,1224.7944 C613.7813,1224.7944 614.9375,1224.4975 615.6875,1223.9506 C616.2656,1223.5444 616.5938,1223.0913 616.5938,1222.7006 C616.5938,1222.2475 616.2031,1221.8569 615.7344,1221.8569 C615.5156,1221.8569 615.3125,1221.935 615.125,1222.1225 C614.6719,1222.6069 614.6719,1222.6069 614.4844,1222.7006 C614.0625,1222.9663 613.375,1223.0913 612.6094,1223.0913 C610.5625,1223.0913 609.2656,1221.9975 609.2656,1220.2944 L609.2656,1219.2006 C609.2656,1217.4194 610.5156,1216.1069 612.25,1216.1069 C612.8281,1216.1069 613.4375,1216.2631 613.9063,1216.5131 C614.3906,1216.7944 614.5625,1217.0131 614.6563,1217.4194 C614.7188,1217.8256 614.75,1217.9506 614.8906,1218.0756 C615.0313,1218.2163 615.2656,1218.3256 615.4844,1218.3256 C615.75,1218.3256 616.0156,1218.185 616.1875,1217.9663 C616.2969,1217.81 616.3281,1217.6225 616.3281,1217.2006 L616.3281,1215.7788 C616.3281,1215.3413 616.3125,1215.2163 616.2188,1215.06 C616.0625,1214.7944 615.7813,1214.6538 615.4844,1214.6538 C615.1875,1214.6538 614.9844,1214.7475 614.7656,1215.06 L614.5938,1214.9819 Z " fill="#000000"/><text fill="#000000" font-family="sans-serif" font-size="14" lengthAdjust="spacing" textLength="37" x="632.75" y="1224.1567">Mesh</text><line style="stroke:#181818;stroke-width:0.5;" x1="478" x2="792" y1="1235.31" y2="1235.31"/><text fill="#000000" font-family="sans-serif" font-size="14" lengthAdjust="spacing" textLength="148" x="483" y="1252.3051">face_colors : ndarray</text><text fill="#000000" font-family="sans-serif" font-size="14" lengthAdjust="spacing" textLength="105" x="483" y="1268.602">faces : ndarray</text><text fill="#000000" font-family="sans-serif" font-size="14" lengthAdjust="spacing" textLength="126" x="483" y="1284.8989">markers : ndarray</text><text fill="#000000" font-family="sans-serif" font-size="14" lengthAdjust="spacing" textLength="124" x="483" y="1301.1957">normals : ndarray</text><text fill="#000000" font-family="sans-serif" font-size="14" lengthAdjust="spacing" textLength="76" x="483" y="1317.4926">num_faces</text><text fill="#000000" font-family="sans-serif" font-size="14" lengthAdjust="spacing" textLength="95" x="483" y="1333.7895">num_normals</text><text fill="#000000" font-family="sans-serif" font-size="14" lengthAdjust="spacing" textLength="96" x="483" y="1350.0864">num_vertices</text><text fill="#000000" font-family="sans-serif" font-size="14" lengthAdjust="spacing" textLength="164" x="483" y="1366.3832">vertex_colors : ndarray</text><text fill="#000000" font-family="sans-serif" font-size="14" lengthAdjust="spacing" textLength="125" x="483" y="1382.6801">vertices : ndarray</text><line style="stroke:#181818;stroke-width:0.5;" x1="478" x2="792" y1="1389.9819" y2="1389.9819"/><text fill="#000000" font-family="sans-serif" font-size="14" lengthAdjust="spacing" textLength="304" x="483" y="1406.977">from_proto(pb: Union[proto.Mesh, bytes])</text><text fill="#000000" font-family="sans-serif" font-size="14" lengthAdjust="spacing" textLength="182" x="483" y="1423.2739">to_proto() -&gt; proto.Mesh</text></g><!--class dtcc_model.meshfields.MeshField--><g id="elem_dtcc_model.meshfields.MeshField"><rect codeLine="117" fill="#F1F1F1" height="113.1875" id="dtcc_model.meshfields.MeshField" rx="3.5" ry="3.5" style="stroke:#181818;stroke-width:0.5;" width="350" x="1017.5" y="1517.31"/><ellipse cx="1152.75" cy="1533.31" fill="#ADD1B2" rx="11" ry="11" style="stroke:#181818;stroke-width:1.0;"/><path d="M1155.0938,1528.9819 C1154.1563,1528.5444 1153.5625,1528.4038 1152.6875,1528.4038 C1150.0625,1528.4038 1148.0625,1530.4819 1148.0625,1533.2006 L1148.0625,1534.3256 C1148.0625,1536.9038 1150.1719,1538.7944 1153.0625,1538.7944 C1154.2813,1538.7944 1155.4375,1538.4975 1156.1875,1537.9506 C1156.7656,1537.5444 1157.0938,1537.0913 1157.0938,1536.7006 C1157.0938,1536.2475 1156.7031,1535.8569 1156.2344,1535.8569 C1156.0156,1535.8569 1155.8125,1535.935 1155.625,1536.1225 C1155.1719,1536.6069 1155.1719,1536.6069 1154.9844,1536.7006 C1154.5625,1536.9663 1153.875,1537.0913 1153.1094,1537.0913 C1151.0625,1537.0913 1149.7656,1535.9975 1149.7656,1534.2944 L1149.7656,1533.2006 C1149.7656,1531.4194 1151.0156,1530.1069 1152.75,1530.1069 C1153.3281,1530.1069 1153.9375,1530.2631 1154.4063,1530.5131 C1154.8906,1530.7944 1155.0625,1531.0131 1155.1563,1531.4194 C1155.2188,1531.8256 1155.25,1531.9506 1155.3906,1532.0756 C1155.5313,1532.2163 1155.7656,1532.3256 1155.9844,1532.3256 C1156.25,1532.3256 1156.5156,1532.185 1156.6875,1531.9663 C1156.7969,1531.81 1156.8281,1531.6225 1156.8281,1531.2006 L1156.8281,1529.7788 C1156.8281,1529.3413 1156.8125,1529.2163 1156.7188,1529.06 C1156.5625,1528.7944 1156.2813,1528.6538 1155.9844,1528.6538 C1155.6875,1528.6538 1155.4844,1528.7475 1155.2656,1529.06 L1155.0938,1528.9819 Z " fill="#000000"/><text fill="#000000" font-family="sans-serif" font-size="14" lengthAdjust="spacing" textLength="71" x="1173.25" y="1538.1567">MeshField</text><line style="stroke:#181818;stroke-width:0.5;" x1="1018.5" x2="1366.5" y1="1549.31" y2="1549.31"/><text fill="#000000" font-family="sans-serif" font-size="14" lengthAdjust="spacing" textLength="39" x="1023.5" y="1566.3051">mesh</text><text fill="#000000" font-family="sans-serif" font-size="14" lengthAdjust="spacing" textLength="111" x="1023.5" y="1582.602">values : ndarray</text><line style="stroke:#181818;stroke-width:0.5;" x1="1018.5" x2="1366.5" y1="1589.9038" y2="1589.9038"/><text fill="#000000" font-family="sans-serif" font-size="14" lengthAdjust="spacing" textLength="338" x="1023.5" y="1606.8989">from_proto(pb: Union[proto.MeshField, bytes])</text><text fill="#000000" font-family="sans-serif" font-size="14" lengthAdjust="spacing" textLength="216" x="1023.5" y="1623.1957">to_proto() -&gt; proto.MeshField</text></g><!--class dtcc_model.meshfields.MeshVectorField--><g id="elem_dtcc_model.meshfields.MeshVectorField"><rect codeLine="123" fill="#F1F1F1" height="113.1875" id="dtcc_model.meshfields.MeshVectorField" rx="3.5" ry="3.5" style="stroke:#181818;stroke-width:0.5;" width="399" x="993" y="1001.31"/><ellipse cx="1128.25" cy="1017.31" fill="#ADD1B2" rx="11" ry="11" style="stroke:#181818;stroke-width:1.0;"/><path d="M1130.5938,1012.9819 C1129.6563,1012.5444 1129.0625,1012.4038 1128.1875,1012.4038 C1125.5625,1012.4038 1123.5625,1014.4819 1123.5625,1017.2006 L1123.5625,1018.3256 C1123.5625,1020.9038 1125.6719,1022.7944 1128.5625,1022.7944 C1129.7813,1022.7944 1130.9375,1022.4975 1131.6875,1021.9506 C1132.2656,1021.5444 1132.5938,1021.0913 1132.5938,1020.7006 C1132.5938,1020.2475 1132.2031,1019.8569 1131.7344,1019.8569 C1131.5156,1019.8569 1131.3125,1019.935 1131.125,1020.1225 C1130.6719,1020.6069 1130.6719,1020.6069 1130.4844,1020.7006 C1130.0625,1020.9663 1129.375,1021.0913 1128.6094,1021.0913 C1126.5625,1021.0913 1125.2656,1019.9975 1125.2656,1018.2944 L1125.2656,1017.2006 C1125.2656,1015.4194 1126.5156,1014.1069 1128.25,1014.1069 C1128.8281,1014.1069 1129.4375,1014.2631 1129.9063,1014.5131 C1130.3906,1014.7944 1130.5625,1015.0131 1130.6563,1015.4194 C1130.7188,1015.8256 1130.75,1015.9506 1130.8906,1016.0756 C1131.0313,1016.2163 1131.2656,1016.3256 1131.4844,1016.3256 C1131.75,1016.3256 1132.0156,1016.185 1132.1875,1015.9663 C1132.2969,1015.81 1132.3281,1015.6225 1132.3281,1015.2006 L1132.3281,1013.7788 C1132.3281,1013.3413 1132.3125,1013.2163 1132.2188,1013.06 C1132.0625,1012.7944 1131.7813,1012.6538 1131.4844,1012.6538 C1131.1875,1012.6538 1130.9844,1012.7475 1130.7656,1013.06 L1130.5938,1012.9819 Z " fill="#000000"/><text fill="#000000" font-family="sans-serif" font-size="14" lengthAdjust="spacing" textLength="120" x="1148.75" y="1022.1567">MeshVectorField</text><line style="stroke:#181818;stroke-width:0.5;" x1="994" x2="1391" y1="1033.31" y2="1033.31"/><text fill="#000000" font-family="sans-serif" font-size="14" lengthAdjust="spacing" textLength="39" x="999" y="1050.3051">mesh</text><text fill="#000000" font-family="sans-serif" font-size="14" lengthAdjust="spacing" textLength="111" x="999" y="1066.602">values : ndarray</text><line style="stroke:#181818;stroke-width:0.5;" x1="994" x2="1391" y1="1073.9038" y2="1073.9038"/><text fill="#000000" font-family="sans-serif" font-size="14" lengthAdjust="spacing" textLength="387" x="999" y="1090.8989">from_proto(pb: Union[proto.MeshVectorField, bytes])</text><text fill="#000000" font-family="sans-serif" font-size="14" lengthAdjust="spacing" textLength="265" x="999" y="1107.1957">to_proto() -&gt; proto.MeshVectorField</text></g><!--class dtcc_model.pointcloud.PointCloud--><g id="elem_dtcc_model.pointcloud.PointCloud"><rect codeLine="129" fill="#F1F1F1" height="259.8594" id="dtcc_model.pointcloud.PointCloud" rx="3.5" ry="3.5" style="stroke:#181818;stroke-width:0.5;" width="357" x="456.5" y="664.81"/><ellipse cx="591.75" cy="680.81" fill="#ADD1B2" rx="11" ry="11" style="stroke:#181818;stroke-width:1.0;"/><path d="M594.0938,676.4819 C593.1563,676.0444 592.5625,675.9038 591.6875,675.9038 C589.0625,675.9038 587.0625,677.9819 587.0625,680.7006 L587.0625,681.8256 C587.0625,684.4038 589.1719,686.2944 592.0625,686.2944 C593.2813,686.2944 594.4375,685.9975 595.1875,685.4506 C595.7656,685.0444 596.0938,684.5913 596.0938,684.2006 C596.0938,683.7475 595.7031,683.3569 595.2344,683.3569 C595.0156,683.3569 594.8125,683.435 594.625,683.6225 C594.1719,684.1069 594.1719,684.1069 593.9844,684.2006 C593.5625,684.4663 592.875,684.5913 592.1094,684.5913 C590.0625,684.5913 588.7656,683.4975 588.7656,681.7944 L588.7656,680.7006 C588.7656,678.9194 590.0156,677.6069 591.75,677.6069 C592.3281,677.6069 592.9375,677.7631 593.4063,678.0131 C593.8906,678.2944 594.0625,678.5131 594.1563,678.9194 C594.2188,679.3256 594.25,679.4506 594.3906,679.5756 C594.5313,679.7163 594.7656,679.8256 594.9844,679.8256 C595.25,679.8256 595.5156,679.685 595.6875,679.4663 C595.7969,679.31 595.8281,679.1225 595.8281,678.7006 L595.8281,677.2788 C595.8281,676.8413 595.8125,676.7163 595.7188,676.56 C595.5625,676.2944 595.2813,676.1538 594.9844,676.1538 C594.6875,676.1538 594.4844,676.2475 594.2656,676.56 L594.0938,676.4819 Z " fill="#000000"/><text fill="#000000" font-family="sans-serif" font-size="14" lengthAdjust="spacing" textLength="78" x="612.25" y="685.6567">PointCloud</text><line style="stroke:#181818;stroke-width:0.5;" x1="457.5" x2="812.5" y1="696.81" y2="696.81"/><text fill="#000000" font-family="sans-serif" font-size="14" lengthAdjust="spacing" textLength="52" x="462.5" y="713.8051">bounds</text><text fill="#000000" font-family="sans-serif" font-size="14" lengthAdjust="spacing" textLength="160" x="462.5" y="730.102">classification : ndarray</text><text fill="#000000" font-family="sans-serif" font-size="14" lengthAdjust="spacing" textLength="48" x="462.5" y="746.3989">georef</text><text fill="#000000" font-family="sans-serif" font-size="14" lengthAdjust="spacing" textLength="131" x="462.5" y="762.6957">intensity : ndarray</text><text fill="#000000" font-family="sans-serif" font-size="14" lengthAdjust="spacing" textLength="157" x="462.5" y="778.9926">num_returns : ndarray</text><text fill="#000000" font-family="sans-serif" font-size="14" lengthAdjust="spacing" textLength="113" x="462.5" y="795.2895">points : ndarray</text><text fill="#000000" font-family="sans-serif" font-size="14" lengthAdjust="spacing" textLength="175" x="462.5" y="811.5864">return_number : ndarray</text><line style="stroke:#181818;stroke-width:0.5;" x1="457.5" x2="812.5" y1="818.8881" y2="818.8881"/><text fill="#000000" font-family="sans-serif" font-size="14" lengthAdjust="spacing" textLength="133" x="462.5" y="835.8832">calculate_bounds()</text><text fill="#000000" font-family="sans-serif" font-size="14" lengthAdjust="spacing" textLength="345" x="462.5" y="852.1801">from_proto(pb: Union[proto.PointCloud, bytes])</text><text fill="#000000" font-family="sans-serif" font-size="14" lengthAdjust="spacing" textLength="97" x="462.5" y="868.477">merge(other)</text><text fill="#000000" font-family="sans-serif" font-size="14" lengthAdjust="spacing" textLength="255" x="462.5" y="884.7739">remove_points(indices: np.ndarray)</text><text fill="#000000" font-family="sans-serif" font-size="14" lengthAdjust="spacing" textLength="223" x="462.5" y="901.0707">to_proto() -&gt; proto.PointCloud</text><text fill="#000000" font-family="sans-serif" font-size="14" lengthAdjust="spacing" textLength="198" x="462.5" y="917.3676">used_classifications() -&gt; set</text></g><!--class dtcc_model.raster.Raster--><g id="elem_dtcc_model.raster.Raster"><rect codeLine="144" fill="#F1F1F1" height="259.8594" id="dtcc_model.raster.Raster" rx="3.5" ry="3.5" style="stroke:#181818;stroke-width:0.5;" width="326" x="472" y="2067.81"/><ellipse cx="607.25" cy="2083.81" fill="#ADD1B2" rx="11" ry="11" style="stroke:#181818;stroke-width:1.0;"/><path d="M609.5938,2079.4819 C608.6563,2079.0444 608.0625,2078.9038 607.1875,2078.9038 C604.5625,2078.9038 602.5625,2080.9819 602.5625,2083.7006 L602.5625,2084.8256 C602.5625,2087.4038 604.6719,2089.2944 607.5625,2089.2944 C608.7813,2089.2944 609.9375,2088.9975 610.6875,2088.4506 C611.2656,2088.0444 611.5938,2087.5913 611.5938,2087.2006 C611.5938,2086.7475 611.2031,2086.3569 610.7344,2086.3569 C610.5156,2086.3569 610.3125,2086.435 610.125,2086.6225 C609.6719,2087.1069 609.6719,2087.1069 609.4844,2087.2006 C609.0625,2087.4663 608.375,2087.5913 607.6094,2087.5913 C605.5625,2087.5913 604.2656,2086.4975 604.2656,2084.7944 L604.2656,2083.7006 C604.2656,2081.9194 605.5156,2080.6069 607.25,2080.6069 C607.8281,2080.6069 608.4375,2080.7631 608.9063,2081.0131 C609.3906,2081.2944 609.5625,2081.5131 609.6563,2081.9194 C609.7188,2082.3256 609.75,2082.4506 609.8906,2082.5756 C610.0313,2082.7163 610.2656,2082.8256 610.4844,2082.8256 C610.75,2082.8256 611.0156,2082.685 611.1875,2082.4663 C611.2969,2082.31 611.3281,2082.1225 611.3281,2081.7006 L611.3281,2080.2788 C611.3281,2079.8413 611.3125,2079.7163 611.2188,2079.56 C611.0625,2079.2944 610.7813,2079.1538 610.4844,2079.1538 C610.1875,2079.1538 609.9844,2079.2475 609.7656,2079.56 L609.5938,2079.4819 Z " fill="#000000"/><text fill="#000000" font-family="sans-serif" font-size="14" lengthAdjust="spacing" textLength="47" x="627.75" y="2088.6567">Raster</text><line style="stroke:#181818;stroke-width:0.5;" x1="473" x2="797" y1="2099.81" y2="2099.81"/><text fill="#000000" font-family="sans-serif" font-size="14" lengthAdjust="spacing" textLength="52" x="478" y="2116.8051">bounds</text><text fill="#000000" font-family="sans-serif" font-size="14" lengthAdjust="spacing" textLength="60" x="478" y="2133.102">cell_size</text><text fill="#000000" font-family="sans-serif" font-size="14" lengthAdjust="spacing" textLength="63" x="478" y="2149.3989">channels</text><text fill="#000000" font-family="sans-serif" font-size="14" lengthAdjust="spacing" textLength="54" x="478" y="2165.6957">crs : str</text><text fill="#000000" font-family="sans-serif" font-size="14" lengthAdjust="spacing" textLength="99" x="478" y="2181.9926">data : ndarray</text><text fill="#000000" font-family="sans-serif" font-size="14" lengthAdjust="spacing" textLength="105" x="478" y="2198.2895">georef : Affine</text><text fill="#000000" font-family="sans-serif" font-size="14" lengthAdjust="spacing" textLength="47" x="478" y="2214.5864">height</text><text fill="#000000" font-family="sans-serif" font-size="14" lengthAdjust="spacing" textLength="97" x="478" y="2230.8832">nodata : float</text><text fill="#000000" font-family="sans-serif" font-size="14" lengthAdjust="spacing" textLength="43" x="478" y="2247.1801">shape</text><text fill="#000000" font-family="sans-serif" font-size="14" lengthAdjust="spacing" textLength="40" x="478" y="2263.477">width</text><line style="stroke:#181818;stroke-width:0.5;" x1="473" x2="797" y1="2270.7788" y2="2270.7788"/><text fill="#000000" font-family="sans-serif" font-size="14" lengthAdjust="spacing" textLength="314" x="478" y="2287.7739">from_proto(pb: Union[proto.Raster, bytes])</text><text fill="#000000" font-family="sans-serif" font-size="14" lengthAdjust="spacing" textLength="189" x="478" y="2304.0707">get_value(x: float, y: float)</text><text fill="#000000" font-family="sans-serif" font-size="14" lengthAdjust="spacing" textLength="192" x="478" y="2320.3676">to_proto() -&gt; proto.Raster</text></g><!--class dtcc_model.roadnetwork.Road--><g id="elem_dtcc_model.roadnetwork.Road"><rect codeLine="159" fill="#F1F1F1" height="259.8594" id="dtcc_model.roadnetwork.Road" rx="3.5" ry="3.5" style="stroke:#181818;stroke-width:0.5;" width="315" x="1035" y="2329.81"/><ellipse cx="1170.25" cy="2345.81" fill="#ADD1B2" rx="11" ry="11" style="stroke:#181818;stroke-width:1.0;"/><path d="M1172.5938,2341.4819 C1171.6563,2341.0444 1171.0625,2340.9038 1170.1875,2340.9038 C1167.5625,2340.9038 1165.5625,2342.9819 1165.5625,2345.7006 L1165.5625,2346.8256 C1165.5625,2349.4038 1167.6719,2351.2944 1170.5625,2351.2944 C1171.7813,2351.2944 1172.9375,2350.9975 1173.6875,2350.4506 C1174.2656,2350.0444 1174.5938,2349.5913 1174.5938,2349.2006 C1174.5938,2348.7475 1174.2031,2348.3569 1173.7344,2348.3569 C1173.5156,2348.3569 1173.3125,2348.435 1173.125,2348.6225 C1172.6719,2349.1069 1172.6719,2349.1069 1172.4844,2349.2006 C1172.0625,2349.4663 1171.375,2349.5913 1170.6094,2349.5913 C1168.5625,2349.5913 1167.2656,2348.4975 1167.2656,2346.7944 L1167.2656,2345.7006 C1167.2656,2343.9194 1168.5156,2342.6069 1170.25,2342.6069 C1170.8281,2342.6069 1171.4375,2342.7631 1171.9063,2343.0131 C1172.3906,2343.2944 1172.5625,2343.5131 1172.6563,2343.9194 C1172.7188,2344.3256 1172.75,2344.4506 1172.8906,2344.5756 C1173.0313,2344.7163 1173.2656,2344.8256 1173.4844,2344.8256 C1173.75,2344.8256 1174.0156,2344.685 1174.1875,2344.4663 C1174.2969,2344.31 1174.3281,2344.1225 1174.3281,2343.7006 L1174.3281,2342.2788 C1174.3281,2341.8413 1174.3125,2341.7163 1174.2188,2341.56 C1174.0625,2341.2944 1173.7813,2341.1538 1173.4844,2341.1538 C1173.1875,2341.1538 1172.9844,2341.2475 1172.7656,2341.56 L1172.5938,2341.4819 Z " fill="#000000"/><text fill="#000000" font-family="sans-serif" font-size="14" lengthAdjust="spacing" textLength="36" x="1190.75" y="2350.6567">Road</text><line style="stroke:#181818;stroke-width:0.5;" x1="1036" x2="1349" y1="2361.81" y2="2361.81"/><text fill="#000000" font-family="sans-serif" font-size="14" lengthAdjust="spacing" textLength="92" x="1041" y="2378.8051">bridge : bool</text><text fill="#000000" font-family="sans-serif" font-size="14" lengthAdjust="spacing" textLength="70" x="1041" y="2395.102">lanes : int</text><text fill="#000000" font-family="sans-serif" font-size="14" lengthAdjust="spacing" textLength="47" x="1041" y="2411.3989">length</text><text fill="#000000" font-family="sans-serif" font-size="14" lengthAdjust="spacing" textLength="197" x="1041" y="2427.6957">road_geometry : LineString</text><text fill="#000000" font-family="sans-serif" font-size="14" lengthAdjust="spacing" textLength="85" x="1041" y="2443.9926">road_id : str</text><text fill="#000000" font-family="sans-serif" font-size="14" lengthAdjust="spacing" textLength="112" x="1041" y="2460.2895">road_name : str</text><text fill="#000000" font-family="sans-serif" font-size="14" lengthAdjust="spacing" textLength="73" x="1041" y="2476.5864">road_type</text><text fill="#000000" font-family="sans-serif" font-size="14" lengthAdjust="spacing" textLength="166" x="1041" y="2492.8832">road_vertices : List[int]</text><text fill="#000000" font-family="sans-serif" font-size="14" lengthAdjust="spacing" textLength="126" x="1041" y="2509.1801">road_width : float</text><text fill="#000000" font-family="sans-serif" font-size="14" lengthAdjust="spacing" textLength="131" x="1041" y="2525.477">speed_limit : float</text><text fill="#000000" font-family="sans-serif" font-size="14" lengthAdjust="spacing" textLength="91" x="1041" y="2541.7739">tunnel : bool</text><line style="stroke:#181818;stroke-width:0.5;" x1="1036" x2="1349" y1="2549.0756" y2="2549.0756"/><text fill="#000000" font-family="sans-serif" font-size="14" lengthAdjust="spacing" textLength="303" x="1041" y="2566.0707">from_proto(pb: Union[proto.Road, bytes])</text><text fill="#000000" font-family="sans-serif" font-size="14" lengthAdjust="spacing" textLength="181" x="1041" y="2582.3676">to_proto() -&gt; proto.Road</text></g><!--class dtcc_model.roadnetwork.RoadNetwork--><g id="elem_dtcc_model.roadnetwork.RoadNetwork"><rect codeLine="174" fill="#F1F1F1" height="129.4844" id="dtcc_model.roadnetwork.RoadNetwork" rx="3.5" ry="3.5" style="stroke:#181818;stroke-width:0.5;" width="376" x="447" y="1816.31"/><ellipse cx="582.25" cy="1832.31" fill="#ADD1B2" rx="11" ry="11" style="stroke:#181818;stroke-width:1.0;"/><path d="M584.5938,1827.9819 C583.6563,1827.5444 583.0625,1827.4038 582.1875,1827.4038 C579.5625,1827.4038 577.5625,1829.4819 577.5625,1832.2006 L577.5625,1833.3256 C577.5625,1835.9038 579.6719,1837.7944 582.5625,1837.7944 C583.7813,1837.7944 584.9375,1837.4975 585.6875,1836.9506 C586.2656,1836.5444 586.5938,1836.0913 586.5938,1835.7006 C586.5938,1835.2475 586.2031,1834.8569 585.7344,1834.8569 C585.5156,1834.8569 585.3125,1834.935 585.125,1835.1225 C584.6719,1835.6069 584.6719,1835.6069 584.4844,1835.7006 C584.0625,1835.9663 583.375,1836.0913 582.6094,1836.0913 C580.5625,1836.0913 579.2656,1834.9975 579.2656,1833.2944 L579.2656,1832.2006 C579.2656,1830.4194 580.5156,1829.1069 582.25,1829.1069 C582.8281,1829.1069 583.4375,1829.2631 583.9063,1829.5131 C584.3906,1829.7944 584.5625,1830.0131 584.6563,1830.4194 C584.7188,1830.8256 584.75,1830.9506 584.8906,1831.0756 C585.0313,1831.2163 585.2656,1831.3256 585.4844,1831.3256 C585.75,1831.3256 586.0156,1831.185 586.1875,1830.9663 C586.2969,1830.81 586.3281,1830.6225 586.3281,1830.2006 L586.3281,1828.7788 C586.3281,1828.3413 586.3125,1828.2163 586.2188,1828.06 C586.0625,1827.7944 585.7813,1827.6538 585.4844,1827.6538 C585.1875,1827.6538 584.9844,1827.7475 584.7656,1828.06 L584.5938,1827.9819 Z " fill="#000000"/><text fill="#000000" font-family="sans-serif" font-size="14" lengthAdjust="spacing" textLength="97" x="602.75" y="1837.1567">RoadNetwork</text><line style="stroke:#181818;stroke-width:0.5;" x1="448" x2="822" y1="1848.31" y2="1848.31"/><text fill="#000000" font-family="sans-serif" font-size="14" lengthAdjust="spacing" textLength="48" x="453" y="1865.3051">georef</text><text fill="#000000" font-family="sans-serif" font-size="14" lengthAdjust="spacing" textLength="124" x="453" y="1881.602">roads : List[Road]</text><text fill="#000000" font-family="sans-serif" font-size="14" lengthAdjust="spacing" textLength="125" x="453" y="1897.8989">vertices : ndarray</text><line style="stroke:#181818;stroke-width:0.5;" x1="448" x2="822" y1="1905.2006" y2="1905.2006"/><text fill="#000000" font-family="sans-serif" font-size="14" lengthAdjust="spacing" textLength="364" x="453" y="1922.1957">from_proto(pb: Union[proto.RoadNetwork, bytes])</text><text fill="#000000" font-family="sans-serif" font-size="14" lengthAdjust="spacing" textLength="242" x="453" y="1938.4926">to_proto() -&gt; proto.RoadNetwork</text></g><!--class dtcc_model.roadnetwork.RoadType--><g id="elem_dtcc_model.roadnetwork.RoadType"><rect codeLine="181" fill="#F1F1F1" height="64.2969" id="dtcc_model.roadnetwork.RoadType" rx="3.5" ry="3.5" style="stroke:#181818;stroke-width:0.5;" width="104" x="583" y="2461.81"/><ellipse cx="598" cy="2477.81" fill="#ADD1B2" rx="11" ry="11" style="stroke:#181818;stroke-width:1.0;"/><path d="M600.3438,2473.4819 C599.4063,2473.0444 598.8125,2472.9038 597.9375,2472.9038 C595.3125,2472.9038 593.3125,2474.9819 593.3125,2477.7006 L593.3125,2478.8256 C593.3125,2481.4038 595.4219,2483.2944 598.3125,2483.2944 C599.5313,2483.2944 600.6875,2482.9975 601.4375,2482.4506 C602.0156,2482.0444 602.3438,2481.5913 602.3438,2481.2006 C602.3438,2480.7475 601.9531,2480.3569 601.4844,2480.3569 C601.2656,2480.3569 601.0625,2480.435 600.875,2480.6225 C600.4219,2481.1069 600.4219,2481.1069 600.2344,2481.2006 C599.8125,2481.4663 599.125,2481.5913 598.3594,2481.5913 C596.3125,2481.5913 595.0156,2480.4975 595.0156,2478.7944 L595.0156,2477.7006 C595.0156,2475.9194 596.2656,2474.6069 598,2474.6069 C598.5781,2474.6069 599.1875,2474.7631 599.6563,2475.0131 C600.1406,2475.2944 600.3125,2475.5131 600.4063,2475.9194 C600.4688,2476.3256 600.5,2476.4506 600.6406,2476.5756 C600.7813,2476.7163 601.0156,2476.8256 601.2344,2476.8256 C601.5,2476.8256 601.7656,2476.685 601.9375,2476.4663 C602.0469,2476.31 602.0781,2476.1225 602.0781,2475.7006 L602.0781,2474.2788 C602.0781,2473.8413 602.0625,2473.7163 601.9688,2473.56 C601.8125,2473.2944 601.5313,2473.1538 601.2344,2473.1538 C600.9375,2473.1538 600.7344,2473.2475 600.5156,2473.56 L600.3438,2473.4819 Z " fill="#000000"/><text fill="#000000" font-family="sans-serif" font-size="14" lengthAdjust="spacing" textLength="72" x="612" y="2482.6567">RoadType</text><line style="stroke:#181818;stroke-width:0.5;" x1="584" x2="686" y1="2493.81" y2="2493.81"/><text fill="#000000" font-family="sans-serif" font-size="14" lengthAdjust="spacing" textLength="40" x="589" y="2510.8051">name</text><line style="stroke:#181818;stroke-width:0.5;" x1="584" x2="686" y1="2518.1069" y2="2518.1069"/></g><!--class dtcc_model.meshes.VolumeMesh--><g id="elem_dtcc_model.meshes.VolumeMesh"><rect codeLine="184" fill="#F1F1F1" height="162.0781" id="dtcc_model.meshes.VolumeMesh" rx="3.5" ry="3.5" style="stroke:#181818;stroke-width:0.5;" width="370" x="1007.5" y="2624.81"/><ellipse cx="1142.75" cy="2640.81" fill="#ADD1B2" rx="11" ry="11" style="stroke:#181818;stroke-width:1.0;"/><path d="M1145.0938,2636.4819 C1144.1563,2636.0444 1143.5625,2635.9038 1142.6875,2635.9038 C1140.0625,2635.9038 1138.0625,2637.9819 1138.0625,2640.7006 L1138.0625,2641.8256 C1138.0625,2644.4038 1140.1719,2646.2944 1143.0625,2646.2944 C1144.2813,2646.2944 1145.4375,2645.9975 1146.1875,2645.4506 C1146.7656,2645.0444 1147.0938,2644.5913 1147.0938,2644.2006 C1147.0938,2643.7475 1146.7031,2643.3569 1146.2344,2643.3569 C1146.0156,2643.3569 1145.8125,2643.435 1145.625,2643.6225 C1145.1719,2644.1069 1145.1719,2644.1069 1144.9844,2644.2006 C1144.5625,2644.4663 1143.875,2644.5913 1143.1094,2644.5913 C1141.0625,2644.5913 1139.7656,2643.4975 1139.7656,2641.7944 L1139.7656,2640.7006 C1139.7656,2638.9194 1141.0156,2637.6069 1142.75,2637.6069 C1143.3281,2637.6069 1143.9375,2637.7631 1144.4063,2638.0131 C1144.8906,2638.2944 1145.0625,2638.5131 1145.1563,2638.9194 C1145.2188,2639.3256 1145.25,2639.4506 1145.3906,2639.5756 C1145.5313,2639.7163 1145.7656,2639.8256 1145.9844,2639.8256 C1146.25,2639.8256 1146.5156,2639.685 1146.6875,2639.4663 C1146.7969,2639.31 1146.8281,2639.1225 1146.8281,2638.7006 L1146.8281,2637.2788 C1146.8281,2636.8413 1146.8125,2636.7163 1146.7188,2636.56 C1146.5625,2636.2944 1146.2813,2636.1538 1145.9844,2636.1538 C1145.6875,2636.1538 1145.4844,2636.2475 1145.2656,2636.56 L1145.0938,2636.4819 Z " fill="#000000"/><text fill="#000000" font-family="sans-serif" font-size="14" lengthAdjust="spacing" textLength="91" x="1163.25" y="2645.6567">VolumeMesh</text><line style="stroke:#181818;stroke-width:0.5;" x1="1008.5" x2="1376.5" y1="2656.81" y2="2656.81"/><text fill="#000000" font-family="sans-serif" font-size="14" lengthAdjust="spacing" textLength="99" x="1013.5" y="2673.8051">cells : ndarray</text><text fill="#000000" font-family="sans-serif" font-size="14" lengthAdjust="spacing" textLength="126" x="1013.5" y="2690.102">markers : ndarray</text><text fill="#000000" font-family="sans-serif" font-size="14" lengthAdjust="spacing" textLength="70" x="1013.5" y="2706.3989">num_cells</text><text fill="#000000" font-family="sans-serif" font-size="14" lengthAdjust="spacing" textLength="96" x="1013.5" y="2722.6957">num_vertices</text><text fill="#000000" font-family="sans-serif" font-size="14" lengthAdjust="spacing" textLength="125" x="1013.5" y="2738.9926">vertices : ndarray</text><line style="stroke:#181818;stroke-width:0.5;" x1="1008.5" x2="1376.5" y1="2746.2944" y2="2746.2944"/><text fill="#000000" font-family="sans-serif" font-size="14" lengthAdjust="spacing" textLength="358" x="1013.5" y="2763.2895">from_proto(pb: Union[proto.VolumeMesh, bytes])</text><text fill="#000000" font-family="sans-serif" font-size="14" lengthAdjust="spacing" textLength="182" x="1013.5" y="2779.5864">to_proto() -&gt; proto.Mesh</text></g><!--class dtcc_model.meshfields.VolumeMeshField--><g id="elem_dtcc_model.meshfields.VolumeMeshField"><rect codeLine="193" fill="#F1F1F1" height="113.1875" id="dtcc_model.meshfields.VolumeMeshField" rx="3.5" ry="3.5" style="stroke:#181818;stroke-width:0.5;" width="404" x="990.5" y="1149.31"/><ellipse cx="1125.75" cy="1165.31" fill="#ADD1B2" rx="11" ry="11" style="stroke:#181818;stroke-width:1.0;"/><path d="M1128.0938,1160.9819 C1127.1563,1160.5444 1126.5625,1160.4038 1125.6875,1160.4038 C1123.0625,1160.4038 1121.0625,1162.4819 1121.0625,1165.2006 L1121.0625,1166.3256 C1121.0625,1168.9038 1123.1719,1170.7944 1126.0625,1170.7944 C1127.2813,1170.7944 1128.4375,1170.4975 1129.1875,1169.9506 C1129.7656,1169.5444 1130.0938,1169.0913 1130.0938,1168.7006 C1130.0938,1168.2475 1129.7031,1167.8569 1129.2344,1167.8569 C1129.0156,1167.8569 1128.8125,1167.935 1128.625,1168.1225 C1128.1719,1168.6069 1128.1719,1168.6069 1127.9844,1168.7006 C1127.5625,1168.9663 1126.875,1169.0913 1126.1094,1169.0913 C1124.0625,1169.0913 1122.7656,1167.9975 1122.7656,1166.2944 L1122.7656,1165.2006 C1122.7656,1163.4194 1124.0156,1162.1069 1125.75,1162.1069 C1126.3281,1162.1069 1126.9375,1162.2631 1127.4063,1162.5131 C1127.8906,1162.7944 1128.0625,1163.0131 1128.1563,1163.4194 C1128.2188,1163.8256 1128.25,1163.9506 1128.3906,1164.0756 C1128.5313,1164.2163 1128.7656,1164.3256 1128.9844,1164.3256 C1129.25,1164.3256 1129.5156,1164.185 1129.6875,1163.9663 C1129.7969,1163.81 1129.8281,1163.6225 1129.8281,1163.2006 L1129.8281,1161.7788 C1129.8281,1161.3413 1129.8125,1161.2163 1129.7188,1161.06 C1129.5625,1160.7944 1129.2813,1160.6538 1128.9844,1160.6538 C1128.6875,1160.6538 1128.4844,1160.7475 1128.2656,1161.06 L1128.0938,1160.9819 Z " fill="#000000"/><text fill="#000000" font-family="sans-serif" font-size="14" lengthAdjust="spacing" textLength="125" x="1146.25" y="1170.1567">VolumeMeshField</text><line style="stroke:#181818;stroke-width:0.5;" x1="991.5" x2="1393.5" y1="1181.31" y2="1181.31"/><text fill="#000000" font-family="sans-serif" font-size="14" lengthAdjust="spacing" textLength="39" x="996.5" y="1198.3051">mesh</text><text fill="#000000" font-family="sans-serif" font-size="14" lengthAdjust="spacing" textLength="111" x="996.5" y="1214.602">values : ndarray</text><line style="stroke:#181818;stroke-width:0.5;" x1="991.5" x2="1393.5" y1="1221.9038" y2="1221.9038"/><text fill="#000000" font-family="sans-serif" font-size="14" lengthAdjust="spacing" textLength="392" x="996.5" y="1238.8989">from_proto(pb: Union[proto.VolumeMeshField, bytes])</text><text fill="#000000" font-family="sans-serif" font-size="14" lengthAdjust="spacing" textLength="270" x="996.5" y="1255.1957">to_proto() -&gt; proto.VolumeMeshField</text></g><!--class dtcc_model.meshfields.VolumeMeshVectorField--><g id="elem_dtcc_model.meshfields.VolumeMeshVectorField"><rect codeLine="199" fill="#F1F1F1" height="113.1875" id="dtcc_model.meshfields.VolumeMeshVectorField" rx="3.5" ry="3.5" style="stroke:#181818;stroke-width:0.5;" width="453" x="966" y="1297.31"/><ellipse cx="1101.25" cy="1313.31" fill="#ADD1B2" rx="11" ry="11" style="stroke:#181818;stroke-width:1.0;"/><path d="M1103.5938,1308.9819 C1102.6563,1308.5444 1102.0625,1308.4038 1101.1875,1308.4038 C1098.5625,1308.4038 1096.5625,1310.4819 1096.5625,1313.2006 L1096.5625,1314.3256 C1096.5625,1316.9038 1098.6719,1318.7944 1101.5625,1318.7944 C1102.7813,1318.7944 1103.9375,1318.4975 1104.6875,1317.9506 C1105.2656,1317.5444 1105.5938,1317.0913 1105.5938,1316.7006 C1105.5938,1316.2475 1105.2031,1315.8569 1104.7344,1315.8569 C1104.5156,1315.8569 1104.3125,1315.935 1104.125,1316.1225 C1103.6719,1316.6069 1103.6719,1316.6069 1103.4844,1316.7006 C1103.0625,1316.9663 1102.375,1317.0913 1101.6094,1317.0913 C1099.5625,1317.0913 1098.2656,1315.9975 1098.2656,1314.2944 L1098.2656,1313.2006 C1098.2656,1311.4194 1099.5156,1310.1069 1101.25,1310.1069 C1101.8281,1310.1069 1102.4375,1310.2631 1102.9063,1310.5131 C1103.3906,1310.7944 1103.5625,1311.0131 1103.6563,1311.4194 C1103.7188,1311.8256 1103.75,1311.9506 1103.8906,1312.0756 C1104.0313,1312.2163 1104.2656,1312.3256 1104.4844,1312.3256 C1104.75,1312.3256 1105.0156,1312.185 1105.1875,1311.9663 C1105.2969,1311.81 1105.3281,1311.6225 1105.3281,1311.2006 L1105.3281,1309.7788 C1105.3281,1309.3413 1105.3125,1309.2163 1105.2188,1309.06 C1105.0625,1308.7944 1104.7813,1308.6538 1104.4844,1308.6538 C1104.1875,1308.6538 1103.9844,1308.7475 1103.7656,1309.06 L1103.5938,1308.9819 Z " fill="#000000"/><text fill="#000000" font-family="sans-serif" font-size="14" lengthAdjust="spacing" textLength="174" x="1121.75" y="1318.1567">VolumeMeshVectorField</text><line style="stroke:#181818;stroke-width:0.5;" x1="967" x2="1418" y1="1329.31" y2="1329.31"/><text fill="#000000" font-family="sans-serif" font-size="14" lengthAdjust="spacing" textLength="39" x="972" y="1346.3051">mesh</text><text fill="#000000" font-family="sans-serif" font-size="14" lengthAdjust="spacing" textLength="111" x="972" y="1362.602">values : ndarray</text><line style="stroke:#181818;stroke-width:0.5;" x1="967" x2="1418" y1="1369.9038" y2="1369.9038"/><text fill="#000000" font-family="sans-serif" font-size="14" lengthAdjust="spacing" textLength="441" x="972" y="1386.8989">from_proto(pb: Union[proto.VolumeMeshVectorField, bytes])</text><text fill="#000000" font-family="sans-serif" font-size="14" lengthAdjust="spacing" textLength="319" x="972" y="1403.1957">to_proto() -&gt; proto.VolumeMeshVectorField</text></g><!--link dtcc_model.building.Building to dtcc_model.model.DTCCModel--><g id="link_dtcc_model.building.Building_dtcc_model.model.DTCCModel"><path codeLine="205" d="M1360.58,926.99 C1382.21,943.82 1402.53,962.81 1419,983.81 C1515.72,1107.1 1556.818,1272.0535 1574.908,1372.7735 " fill="none" id="dtcc_model.building.Building-to-dtcc_model.model.DTCCModel" style="stroke:#454645;stroke-width:1.0;"/><polygon fill="none" points="1578.09,1390.49,1580.8135,1371.7128,1569.0025,1373.8342,1578.09,1390.49" style="stroke:#454645;stroke-width:1.0;"/></g><!--link dtcc_model.city.City to dtcc_model.model.DTCCModel--><g id="link_dtcc_model.city.City_dtcc_model.model.DTCCModel"><path codeLine="206" d="M1346.6,1858.866 C1383.9,1838.166 1421.28,1812.218 1450,1780.81 C1513.97,1710.85 1546.983,1624.0611 1566.663,1554.4511 " fill="none" id="dtcc_model.city.City-to-dtcc_model.model.DTCCModel" style="stroke:#454645;stroke-width:1.0;"/><polygon fill="none" points="1571.56,1537.13,1560.8893,1552.8187,1572.4367,1556.0834,1571.56,1537.13" style="stroke:#454645;stroke-width:1.0;"/></g><!--link dtcc_model.geometry.Bounds to dtcc_model.model.DTCCModel--><g id="link_dtcc_model.geometry.Bounds_dtcc_model.model.DTCCModel"><path codeLine="207" d="M338.263,445.85 C372.239,419.34 409.237,394.45 447,375.81 C837.134,183.26 1065.64,6 1419,259.81 C1511.69,326.39 1567.9739,1121.6546 1583.5639,1372.5946 " fill="none" id="dtcc_model.geometry.Bounds-to-dtcc_model.model.DTCCModel" style="stroke:#454645;stroke-width:1.0;"/><polygon fill="none" points="1584.68,1390.56,1589.5523,1372.2226,1577.5754,1372.9667,1584.68,1390.56" style="stroke:#454645;stroke-width:1.0;"/></g><!--link dtcc_model.geometry.Georef to dtcc_model.model.DTCCModel--><g id="link_dtcc_model.geometry.Georef_dtcc_model.model.DTCCModel"><path codeLine="208" d="M337.288,1723.18 C373.083,1713.14 411.028,1703.91 447,1697.81 C873.482,1625.49 1027.29,1831.339 1419,1647.81 C1469.8,1624.01 1501.8372,1591.9202 1531.7772,1551.6102 " fill="none" id="dtcc_model.geometry.Georef-to-dtcc_model.model.DTCCModel" style="stroke:#454645;stroke-width:1.0;"/><polygon fill="none" points="1542.51,1537.16,1526.9605,1548.0326,1536.5939,1555.1878,1542.51,1537.16" style="stroke:#454645;stroke-width:1.0;"/></g><!--link dtcc_model.grid.Grid to dtcc_model.model.DTCCModel--><g id="link_dtcc_model.grid.Grid_dtcc_model.model.DTCCModel"><path codeLine="209" d="M783.226,393.14 C954.954,292.68 1238.31,170.42 1419,320.81 C1501.88,389.8 1564.0941,1131.1611 1582.3341,1372.6111 " fill="none" id="dtcc_model.grid.Grid-to-dtcc_model.model.DTCCModel" style="stroke:#454645;stroke-width:1.0;"/><polygon fill="none" points="1583.69,1390.56,1588.317,1372.1592,1576.3511,1373.0631,1583.69,1390.56" style="stroke:#454645;stroke-width:1.0;"/></g><!--link dtcc_model.gridfields.GridField to dtcc_model.model.DTCCModel--><g id="link_dtcc_model.gridfields.GridField_dtcc_model.model.DTCCModel"><path codeLine="210" d="M1364.2,429.28 C1384.71,439.29 1403.75,452.18 1419,468.81 C1543.08,604.1 1577.1838,1166.3355 1585.7438,1372.6555 " fill="none" id="dtcc_model.gridfields.GridField-to-dtcc_model.model.DTCCModel" style="stroke:#454645;stroke-width:1.0;"/><polygon fill="none" points="1586.49,1390.64,1591.7387,1372.4068,1579.749,1372.9042,1586.49,1390.64" style="stroke:#454645;stroke-width:1.0;"/></g><!--link dtcc_model.gridfields.GridVectorField to dtcc_model.model.DTCCModel--><g id="link_dtcc_model.gridfields.GridVectorField_dtcc_model.model.DTCCModel"><path codeLine="211" d="M1388.52,580.68 C1411.8,592.23 1433.21,607.26 1450,626.81 C1548.29,741.3 1577.484,1190.6276 1585.544,1372.7176 " fill="none" id="dtcc_model.gridfields.GridVectorField-to-dtcc_model.model.DTCCModel" style="stroke:#454645;stroke-width:1.0;"/><polygon fill="none" points="1586.34,1390.7,1591.5382,1372.4523,1579.5499,1372.9829,1586.34,1390.7" style="stroke:#454645;stroke-width:1.0;"/></g><!--link dtcc_model.landuse.Landuse to dtcc_model.model.DTCCModel--><g id="link_dtcc_model.landuse.Landuse_dtcc_model.model.DTCCModel"><path codeLine="212" d="M1361.74,2183.666 C1394.98,2169.177 1426.73,2149.234 1450,2121.81 C1524.69,2033.784 1565.1237,1707.0391 1580.4837,1554.7491 " fill="none" id="dtcc_model.landuse.Landuse-to-dtcc_model.model.DTCCModel" style="stroke:#454645;stroke-width:1.0;"/><polygon fill="none" points="1582.29,1536.84,1574.514,1554.147,1586.4534,1555.3512,1582.29,1536.84" style="stroke:#454645;stroke-width:1.0;"/></g><!--link dtcc_model.meshes.Mesh to dtcc_model.model.DTCCModel--><g id="link_dtcc_model.meshes.Mesh_dtcc_model.model.DTCCModel"><path codeLine="213" d="M793.151,1379.19 C847.115,1398.04 908.435,1416.67 966,1427.81 C1143.63,1462.17 1336.6303,1467.1321 1461.8703,1466.3521 " fill="none" id="dtcc_model.meshes.Mesh-to-dtcc_model.model.DTCCModel" style="stroke:#454645;stroke-width:1.0;"/><polygon fill="none" points="1479.87,1466.24,1461.833,1460.3522,1461.9077,1472.352,1479.87,1466.24" style="stroke:#454645;stroke-width:1.0;"/></g><!--link dtcc_model.meshes.VolumeMesh to dtcc_model.model.DTCCModel--><g id="link_dtcc_model.meshes.VolumeMesh_dtcc_model.model.DTCCModel"><path codeLine="214" d="M1377.53,2646.347 C1393.25,2635.535 1407.51,2622.799 1419,2607.81 C1548.82,2438.513 1579.6951,1780.0214 1586.6351,1555.0014 " fill="none" id="dtcc_model.meshes.VolumeMesh-to-dtcc_model.model.DTCCModel" style="stroke:#454645;stroke-width:1.0;"/><polygon fill="none" points="1587.19,1537.01,1580.638,1554.8165,1592.6323,1555.1864,1587.19,1537.01" style="stroke:#454645;stroke-width:1.0;"/></g><!--link dtcc_model.meshfields.MeshField to dtcc_model.model.DTCCModel--><g id="link_dtcc_model.meshfields.MeshField_dtcc_model.model.DTCCModel"><path codeLine="215" d="M1367.55,1525.4 C1405.68,1514.8 1427.6683,1508.6835 1462.3983,1499.0235 " fill="none" id="dtcc_model.meshfields.MeshField-to-dtcc_model.model.DTCCModel" style="stroke:#454645;stroke-width:1.0;"/><polygon fill="none" points="1479.74,1494.2,1460.7905,1493.243,1464.0062,1504.8041,1479.74,1494.2" style="stroke:#454645;stroke-width:1.0;"/></g><!--link dtcc_model.meshfields.VolumeMeshField to dtcc_model.model.DTCCModel--><g id="link_dtcc_model.meshfields.VolumeMeshField_dtcc_model.model.DTCCModel"><path codeLine="216" d="M1388.11,1262.37 C1398.83,1267.72 1409.21,1273.52 1419,1279.81 C1464.37,1308.96 1494.3538,1339.0501 1524.8838,1376.7601 " fill="none" id="dtcc_model.meshfields.VolumeMeshField-to-dtcc_model.model.DTCCModel" style="stroke:#454645;stroke-width:1.0;"/><polygon fill="none" points="1536.21,1390.75,1529.5471,1372.9847,1520.2205,1380.5355,1536.21,1390.75" style="stroke:#454645;stroke-width:1.0;"/></g><!--link dtcc_model.meshfields.VolumeMeshVectorField to dtcc_model.model.DTCCModel--><g id="link_dtcc_model.meshfields.VolumeMeshVectorField_dtcc_model.model.DTCCModel"><path codeLine="217" d="M1396.75,1410.34 C1425.46,1418.32 1436.6695,1421.4324 1462.6395,1428.6624 " fill="none" id="dtcc_model.meshfields.VolumeMeshVectorField-to-dtcc_model.model.DTCCModel" style="stroke:#454645;stroke-width:1.0;"/><polygon fill="none" points="1479.98,1433.49,1464.2486,1422.8822,1461.0303,1434.4426,1479.98,1433.49" style="stroke:#454645;stroke-width:1.0;"/></g><!--link dtcc_model.pointcloud.PointCloud to dtcc_model.model.DTCCModel--><g id="link_dtcc_model.pointcloud.PointCloud_dtcc_model.model.DTCCModel"><path codeLine="218" d="M813.762,725.92 C862.38,710.2 915.583,695.78 966,687.81 C1164.86,656.38 1262.14,561.59 1419,687.81 C1528.4,775.84 1569.9955,1196.8388 1582.9755,1372.7588 " fill="none" id="dtcc_model.pointcloud.PointCloud-to-dtcc_model.model.DTCCModel" style="stroke:#454645;stroke-width:1.0;"/><polygon fill="none" points="1584.3,1390.71,1588.9592,1372.3173,1576.9918,1373.2003,1584.3,1390.71" style="stroke:#454645;stroke-width:1.0;"/></g><!--link dtcc_model.raster.Raster to dtcc_model.model.DTCCModel--><g id="link_dtcc_model.raster.Raster_dtcc_model.model.DTCCModel"><path codeLine="219" d="M798.238,2164.532 C851.619,2153.805 911.299,2142.048 966,2131.81 C1166.88,2094.211 1266.88,2189.287 1419,2052.81 C1496.14,1983.602 1551.3696,1696.5799 1574.7796,1554.6999 " fill="none" id="dtcc_model.raster.Raster-to-dtcc_model.model.DTCCModel" style="stroke:#454645;stroke-width:1.0;"/><polygon fill="none" points="1577.71,1536.94,1568.8597,1553.7231,1580.6996,1555.6767,1577.71,1536.94" style="stroke:#454645;stroke-width:1.0;"/></g><!--link dtcc_model.roadnetwork.Road to dtcc_model.model.DTCCModel--><g id="link_dtcc_model.roadnetwork.Road_dtcc_model.model.DTCCModel"><path codeLine="220" d="M1350.03,2381.617 C1376.38,2362.326 1400.98,2339.411 1419,2312.81 C1505.3,2185.396 1560.3934,1736.5987 1579.7534,1554.8487 " fill="none" id="dtcc_model.roadnetwork.Road-to-dtcc_model.model.DTCCModel" style="stroke:#454645;stroke-width:1.0;"/><polygon fill="none" points="1581.66,1536.95,1573.7872,1554.2132,1585.7197,1555.4843,1581.66,1536.95" style="stroke:#454645;stroke-width:1.0;"/></g><!--link dtcc_model.roadnetwork.RoadNetwork to dtcc_model.model.DTCCModel--><g id="link_dtcc_model.roadnetwork.RoadNetwork_dtcc_model.model.DTCCModel"><path codeLine="221" d="M823.23,1826.241 C869.659,1813.68 919.452,1801.025 966,1790.81 C1179.03,1744.06 1271.38,1834.959 1450,1709.81 C1509.16,1668.36 1540.0093,1610.0935 1560.8493,1553.7135 " fill="none" id="dtcc_model.roadnetwork.RoadNetwork-to-dtcc_model.model.DTCCModel" style="stroke:#454645;stroke-width:1.0;"/><polygon fill="none" points="1567.09,1536.83,1555.2214,1551.6333,1566.4771,1555.7938,1567.09,1536.83" style="stroke:#454645;stroke-width:1.0;"/></g><!--link dtcc_model.geometry.Bounds to dtcc_model.city.City--><g id="link_dtcc_model.geometry.Bounds_dtcc_model.city.City"><path codeLine="222" d="M193.373,784.08 C221.967,970.94 289.841,1264.01 447,1464.81 C602.403,1663.36 858.8472,1792.2098 1027.3382,1861.3428 " fill="none" id="dtcc_model.geometry.Bounds-to-dtcc_model.city.City" style="stroke:#454645;stroke-width:1.0;"/><polygon fill="#454645" points="1038.44,1865.898,1034.4075,1859.9198,1027.3382,1861.3428,1031.3707,1867.321,1038.44,1865.898" style="stroke:#454645;stroke-width:1.0;"/><text fill="#000000" font-family="sans-serif" font-size="13" lengthAdjust="spacing" textLength="47" x="611.5" y="1460.8769">bounds</text></g><!--link dtcc_model.geometry.Bounds to dtcc_model.grid.Grid--><g id="link_dtcc_model.geometry.Bounds_dtcc_model.grid.Grid"><path codeLine="223" d="M338.126,564.06 C383.308,552.87 420.5212,543.6518 465.2682,532.5818 " fill="none" id="dtcc_model.geometry.Bounds-to-dtcc_model.grid.Grid" style="stroke:#454645;stroke-width:1.0;"/><polygon fill="#454645" points="476.917,529.7,470.132,527.258,465.2682,532.5818,472.0532,535.0238,476.917,529.7" style="stroke:#454645;stroke-width:1.0;"/><text fill="#000000" font-family="sans-serif" font-size="13" lengthAdjust="spacing" textLength="47" x="369" y="543.8769">bounds</text></g><!--link dtcc_model.geometry.Bounds to dtcc_model.pointcloud.PointCloud--><g id="link_dtcc_model.geometry.Bounds_dtcc_model.pointcloud.PointCloud"><path codeLine="224" d="M338.126,672.73 C376.466,688.55 406.3631,700.8932 445.2401,716.9332 " fill="none" id="dtcc_model.geometry.Bounds-to-dtcc_model.pointcloud.PointCloud" style="stroke:#454645;stroke-width:1.0;"/><polygon fill="#454645" points="456.333,721.51,452.3121,715.524,445.2401,716.9332,449.2609,722.9193,456.333,721.51" style="stroke:#454645;stroke-width:1.0;"/><text fill="#000000" font-family="sans-serif" font-size="13" lengthAdjust="spacing" textLength="47" x="369" y="684.8769">bounds</text></g><!--link dtcc_model.geometry.Georef to dtcc_model.city.City--><g id="link_dtcc_model.geometry.Georef_dtcc_model.city.City"><path codeLine="225" d="M245.218,1851.015 C296.461,1897.831 369.766,1954.38 447,1979.81 C643.719,2044.581 873.1915,2008.8283 1026.6955,1970.6083 " fill="none" id="dtcc_model.geometry.Georef-to-dtcc_model.city.City" style="stroke:#454645;stroke-width:1.0;"/><polygon fill="#454645" points="1038.34,1967.709,1031.5513,1965.2771,1026.6955,1970.6083,1033.4842,1973.0401,1038.34,1967.709" style="stroke:#454645;stroke-width:1.0;"/><text fill="#000000" font-family="sans-serif" font-size="13" lengthAdjust="spacing" textLength="42" x="614" y="1975.8769">georef</text></g><!--link dtcc_model.geometry.Georef to dtcc_model.pointcloud.PointCloud--><g id="link_dtcc_model.geometry.Georef_dtcc_model.pointcloud.PointCloud"><path codeLine="226" d="M206.872,1704.75 C258.084,1592.83 359.337,1372.29 447,1185.81 C487.976,1098.65 529.528,1011.7158 566.034,935.7558 " fill="none" id="dtcc_model.geometry.Georef-to-dtcc_model.pointcloud.PointCloud" style="stroke:#454645;stroke-width:1.0;"/><polygon fill="#454645" points="571.232,924.94,565.0277,928.6152,566.034,935.7558,572.2383,932.0805,571.232,924.94" style="stroke:#454645;stroke-width:1.0;"/><text fill="#000000" font-family="sans-serif" font-size="13" lengthAdjust="spacing" textLength="42" x="371.5" y="1246.8769">georef</text></g><!--link dtcc_model.geometry.Georef to dtcc_model.roadnetwork.RoadNetwork--><g id="link_dtcc_model.geometry.Georef_dtcc_model.roadnetwork.RoadNetwork"><path codeLine="227" d="M337.152,1814.414 C372.698,1822.365 398.8504,1828.2135 435.2224,1836.3495 " fill="none" id="dtcc_model.geometry.Georef-to-dtcc_model.roadnetwork.RoadNetwork" style="stroke:#454645;stroke-width:1.0;"/><polygon fill="#454645" points="446.933,1838.969,441.9509,1833.7557,435.2224,1836.3495,440.2045,1841.5628,446.933,1838.969" style="stroke:#454645;stroke-width:1.0;"/><text fill="#000000" font-family="sans-serif" font-size="13" lengthAdjust="spacing" textLength="42" x="371.5" y="1818.8769">georef</text></g><!--link dtcc_model.grid.Grid to dtcc_model.gridfields.GridField--><g id="link_dtcc_model.grid.Grid_dtcc_model.gridfields.GridField"><path codeLine="228" d="M793.327,463.62 C864.224,451.37 936.2773,438.9135 1008.7253,426.3935 " fill="none" id="dtcc_model.grid.Grid-to-dtcc_model.gridfields.GridField" style="stroke:#454645;stroke-width:1.0;"/><polygon fill="#454645" points="1020.55,424.35,1013.9565,421.4302,1008.7253,426.3935,1015.3188,429.3133,1020.55,424.35" style="stroke:#454645;stroke-width:1.0;"/><text fill="#000000" font-family="sans-serif" font-size="13" lengthAdjust="spacing" textLength="24" x="882.5" y="436.8769">grid</text></g><!--link dtcc_model.grid.Grid to dtcc_model.gridfields.GridVectorField--><g id="link_dtcc_model.grid.Grid_dtcc_model.gridfields.GridVectorField"><path codeLine="229" d="M793.327,505.54 C856.444,511.45 917.9022,517.2019 984.3692,523.4219 " fill="none" id="dtcc_model.grid.Grid-to-dtcc_model.gridfields.GridVectorField" style="stroke:#454645;stroke-width:1.0;"/><polygon fill="#454645" points="996.317,524.54,990.7158,519.9984,984.3692,523.4219,989.9704,527.9636,996.317,524.54" style="stroke:#454645;stroke-width:1.0;"/><text fill="#000000" font-family="sans-serif" font-size="13" lengthAdjust="spacing" textLength="24" x="882.5" y="508.8769">grid</text></g><!--link dtcc_model.landuse.LanduseClasses to dtcc_model.landuse.Landuse--><g id="link_dtcc_model.landuse.LanduseClasses_dtcc_model.landuse.Landuse"><path codeLine="230" d="M706.025,2377.669 C741.275,2368.735 784.574,2357.295 823,2345.81 C888.967,2326.093 949.5097,2306.2775 1012.1427,2284.9105 " fill="none" id="dtcc_model.landuse.LanduseClasses-to-dtcc_model.landuse.Landuse" style="stroke:#454645;stroke-width:1.0;"/><polygon fill="#454645" points="1023.5,2281.036,1016.5299,2279.1875,1012.1427,2284.9105,1019.1128,2286.759,1023.5,2281.036" style="stroke:#454645;stroke-width:1.0;"/><text fill="#000000" font-family="sans-serif" font-size="13" lengthAdjust="spacing" textLength="50" x="869.5" y="2305.8769">landuse</text></g><!--link dtcc_model.meshes.Mesh to dtcc_model.building.Building--><g id="link_dtcc_model.meshes.Mesh_dtcc_model.building.Building"><path codeLine="231" d="M737.239,1203.27 C799.943,1135.93 883.926,1050.91 966,983.81 C984.308,968.84 994.3569,960.9296 1014.4489,946.7796 " fill="none" id="dtcc_model.meshes.Mesh-to-dtcc_model.building.Building" style="stroke:#454645;stroke-width:1.0;"/><polygon fill="#454645" points="1024.26,939.87,1017.0513,940.0544,1014.4489,946.7796,1021.6576,946.5952,1024.26,939.87" style="stroke:#454645;stroke-width:1.0;"/><text fill="#000000" font-family="sans-serif" font-size="13" lengthAdjust="spacing" textLength="36" x="876.5" y="1012.8769">mesh</text></g><!--link dtcc_model.meshes.Mesh to dtcc_model.meshfields.MeshField--><g id="link_dtcc_model.meshes.Mesh_dtcc_model.meshfields.MeshField"><path codeLine="232" d="M743.462,1430.5 C776.113,1459.31 813.799,1487.52 853,1506.81 C903.527,1531.67 950.7778,1545.1784 1005.2908,1555.0184 " fill="none" id="dtcc_model.meshes.Mesh-to-dtcc_model.meshfields.MeshField" style="stroke:#454645;stroke-width:1.0;"/><polygon fill="#454645" points="1017.1,1557.15,1011.906,1552.1478,1005.2908,1555.0184,1010.4849,1560.0206,1017.1,1557.15" style="stroke:#454645;stroke-width:1.0;"/><text fill="#000000" font-family="sans-serif" font-size="13" lengthAdjust="spacing" textLength="36" x="876.5" y="1502.8769">mesh</text></g><!--link dtcc_model.meshes.Mesh to dtcc_model.meshfields.MeshVectorField--><g id="link_dtcc_model.meshes.Mesh_dtcc_model.meshfields.MeshVectorField"><path codeLine="233" d="M793.103,1220.55 C846.803,1189.87 907.973,1157.31 966,1131.81 C979.769,1125.76 982.9767,1124.1901 997.5917,1118.6401 " fill="none" id="dtcc_model.meshes.Mesh-to-dtcc_model.meshfields.MeshVectorField" style="stroke:#454645;stroke-width:1.0;"/><polygon fill="#454645" points="1008.81,1114.38,1001.7808,1112.7706,997.5917,1118.6401,1004.6209,1120.2495,1008.81,1114.38" style="stroke:#454645;stroke-width:1.0;"/><text fill="#000000" font-family="sans-serif" font-size="13" lengthAdjust="spacing" textLength="36" x="876.5" y="1145.8769">mesh</text></g><!--link dtcc_model.meshes.Mesh to dtcc_model.meshfields.VolumeMeshField--><g id="link_dtcc_model.meshes.Mesh_dtcc_model.meshfields.VolumeMeshField"><path codeLine="234" d="M793.327,1285.37 C854.6,1273.13 913.8017,1261.3015 978.7047,1248.3315 " fill="none" id="dtcc_model.meshes.Mesh-to-dtcc_model.meshfields.VolumeMeshField" style="stroke:#454645;stroke-width:1.0;"/><polygon fill="#454645" points="990.472,1245.98,983.8045,1243.2333,978.7047,1248.3315,985.3722,1251.0782,990.472,1245.98" style="stroke:#454645;stroke-width:1.0;"/><text fill="#000000" font-family="sans-serif" font-size="13" lengthAdjust="spacing" textLength="36" x="876.5" y="1254.8769">mesh</text></g><!--link dtcc_model.meshes.Mesh to dtcc_model.meshfields.VolumeMeshVectorField--><g id="link_dtcc_model.meshes.Mesh_dtcc_model.meshfields.VolumeMeshVectorField"><path codeLine="235" d="M793.327,1327.29 C846.901,1330.86 895.9135,1334.1233 953.7765,1337.9733 " fill="none" id="dtcc_model.meshes.Mesh-to-dtcc_model.meshfields.VolumeMeshVectorField" style="stroke:#454645;stroke-width:1.0;"/><polygon fill="#454645" points="965.75,1338.77,960.0288,1334.3805,953.7765,1337.9733,959.4977,1342.3628,965.75,1338.77" style="stroke:#454645;stroke-width:1.0;"/><text fill="#000000" font-family="sans-serif" font-size="13" lengthAdjust="spacing" textLength="36" x="876.5" y="1328.8769">mesh</text></g><!--link dtcc_model.pointcloud.PointCloud to dtcc_model.building.Building--><g id="link_dtcc_model.pointcloud.PointCloud_dtcc_model.building.Building"><path codeLine="236" d="M813.673,807.92 C881.128,812.9 945.7066,817.6659 1012.1726,822.5759 " fill="none" id="dtcc_model.pointcloud.PointCloud-to-dtcc_model.building.Building" style="stroke:#454645;stroke-width:1.0;"/><polygon fill="#454645" points="1024.14,823.46,1018.451,819.0288,1012.1726,822.5759,1017.8616,827.0071,1024.14,823.46" style="stroke:#454645;stroke-width:1.0;"/><text fill="#000000" font-family="sans-serif" font-size="13" lengthAdjust="spacing" textLength="65" x="862" y="807.8769">roofpoints</text></g><!--link dtcc_model.raster.Raster to dtcc_model.city.City--><g id="link_dtcc_model.raster.Raster_dtcc_model.city.City"><path codeLine="237" d="M798.291,2105.03 C816.609,2095.242 835.115,2085.648 853,2076.81 C889.048,2058.997 899.327,2057.3 936,2040.81 C969.248,2025.86 993.9,2014.5865 1027.576,1998.9505 " fill="none" id="dtcc_model.raster.Raster-to-dtcc_model.city.City" style="stroke:#454645;stroke-width:1.0;"/><polygon fill="#454645" points="1038.46,1993.897,1031.3335,1992.7958,1027.576,1998.9505,1034.7025,2000.0518,1038.46,1993.897" style="stroke:#454645;stroke-width:1.0;"/><text fill="#000000" font-family="sans-serif" font-size="13" lengthAdjust="spacing" textLength="42" x="873.5" y="2036.8769">terrain</text></g><!--link dtcc_model.roadnetwork.RoadNetwork to dtcc_model.city.City--><g id="link_dtcc_model.roadnetwork.RoadNetwork_dtcc_model.city.City"><path codeLine="238" d="M823.293,1894.634 C893.217,1899.795 959.7606,1904.7056 1026.2626,1909.6146 " fill="none" id="dtcc_model.roadnetwork.RoadNetwork-to-dtcc_model.city.City" style="stroke:#454645;stroke-width:1.0;"/><polygon fill="#454645" points="1038.23,1910.498,1032.5407,1906.0672,1026.2626,1909.6146,1031.9518,1914.0454,1038.23,1910.498" style="stroke:#454645;stroke-width:1.0;"/><text fill="#000000" font-family="sans-serif" font-size="13" lengthAdjust="spacing" textLength="81" x="854" y="1892.8769">roadnetwork</text></g><!--link dtcc_model.roadnetwork.RoadType to dtcc_model.roadnetwork.Road--><g id="link_dtcc_model.roadnetwork.RoadType_dtcc_model.roadnetwork.Road"><path codeLine="239" d="M687.264,2490.672 C765.492,2485.884 905.9074,2477.2901 1022.7724,2470.1371 " fill="none" id="dtcc_model.roadnetwork.RoadType-to-dtcc_model.roadnetwork.Road" style="stroke:#454645;stroke-width:1.0;"/><polygon fill="#454645" points="1034.75,2469.404,1028.5168,2465.778,1022.7724,2470.1371,1029.0056,2473.7631,1034.75,2469.404" style="stroke:#454645;stroke-width:1.0;"/><text fill="#000000" font-family="sans-serif" font-size="13" lengthAdjust="spacing" textLength="65" x="862" y="2470.8769">road_type</text></g><!--SRC=[hLXBZzis4Bxlhr1pyYvsZPnz2D1kq5wI8cWUbs0XqDBOPfSY1PBohflcltU6f2HAbYNBxiKcEG_DV9mP3lcBtK41oPwlDPFsHi369bObccztDicvXino9M_CCvSbqwn8IfRdN6wJjpS6R29P0QPa6Nm68bkb4waat6I26PEy-KrLCZTl4cQIt6PPMgWSn78BgW2h3qjFJdxS90dJmF1lZNEhSG3CMFpR0Hc20wcqtU6_KPNxjrKf0FzVmF6zyDmjlnRiDLab6w6OTLCke-cXIprqgUjgim6zoBcnJ6OG2BT8oK1QfDmc3- -Q3s-qAj9IAwiMvNgLV9K8qtSt3sxT9-k31VD42ZZ96yHoeH1lJKjM1McdDHP4OaNQQjwV3PeL5uHz7yzrM5_M336YcJReOm1LQzoW5Pb37WYb735CbRAbnZ6kV5BYiCLjJvAj9fjI0NiG4LP-Nw8530F27_qeGLiEf3Vd6P6qKfjIeMBdMSNpnfun38ChCOg3a0M-5gL7RWzzX39SMnB18REkOQw18sC_uBP_hxKzaUUWD6nm89ZCAmCrpmS_9HQA_iOPXJd3fVENvHBiYzBFP3I2pjmw9avQVt5H3rP9_StRSK38-YamYAS5ulsNnyUFv7uV3V_Ra7sqe76Ob3kLcmNIAm7tpZqN_geyB6ZmWwtHLvRPdnr3Rzt6umOt6lQWryf0iFDlWy7ipFH8jMfQ9rgp_t2udwmPdknixeHsQRPDAB- -ZRCydem0x1LFGUov8cirpuzinRKb4RhHrkICDr9MHPg142QCzvGt6PYwchNU60jbx51lFkBJHypAAO-8f-lFxnp4e5CR8fXbm-Fy8mB-xPceNDRBd6747oR0hbLCubqpTatyXhLKwNCCZJYlCpTIT87HeMhqZGsrPHd8SU4UhiT1u4If7N61ll3Lm9JfWUt8y4UQWPcmFt0vDwXwj6eeoexg4Aw1SG7e93ROHwIP4lvKYZO6rxih1TFFqEF23g5WehU6UUMampZm76SS3U5rwECrqxcXCZ_bQ3OOoOHFYEI6nm4L3jjvCToeECUwNlJIqaZAzGpjfzp5viv8kHvxQ_edwZmUXQgEh7OzIKQKPSlKBTbE1z_mZ54Nt36zQG-ejvE6Uej-v6cmbPPTZtqZr5doR2bAh45tA1aJMIMOXTHRj9Ze4LetOhWAq5je6qyDXTf3wWrPS9bJTEDNosNuy2c8M-tKnnd8qouy9fpnO5lq_y8s7dGVUUrMbvxOGnnFnDJmVwZ2PJic9RXqZO_wd5asi1MuzEjcmoLqhms1kpuipOwL45qOHj3qviL8Ri6cBeeNhq7ZVNA8xWb3g7aj4IBO7HxXqNQCIw9xIF0GsL9xkLPA-CeFRRSkG6wT0oIRrjsHwr4bVBQQMk90Z1fkD-zqhMx57XmcRXpLEzVkukUUQbhTbpHWbe1H87Z1uwk0hMZNMiF784QjKvbDF5tu_lHGJQ4OsFofNsShCJM-4TVJ1JK-qdwEzO6rwyGNn7pA0-8PE4k_AL4LC7AYjWo-JwOkS_hyFDsFpiMd_Vwyax2LcpfcUfoN7pCzHLFszjY7J3_ld1pa_p_Sc75c3WgXIwDF2myF_xuRkKpU3DwwPmZr7uSk4Grtn3cYpPLjfj3HbUXo-JWGPcZfNo5cYCOD-7ongChC53vgQY-JxnU1QxLSk073VUGC1TrsQ8vWls-uGhO-BQzArRlXHxTLtT-TBzmcv0N2mpioggWf6ITT22t4-SAdh9YjwDHM3QgA2jdTvFlDoZ-7N20VvygnbXFF0ZsL_SgrQbutJjQek_5txvK_FSyJ7wn4rsZeOdAPddvDkrxFk5MdYjSaqD6h_aWfEvbDzRFuMHNff9RugNsgZvv8gg3DtON-0m00]--></g></svg>